<svg width="600" height="600" viewBox="0 0 600 600" fill="none" xmlns="http://www.w3.org/2000/svg">
<g clip-path="url(#clip0_109_1302)">
<path d="M248.732 294.36C250.004 293.81 251.275 293.259 253.119 292.388C255.943 290.709 258.194 289.352 260.445 287.994C262.398 287.058 264.351 286.123 266.919 284.892C270.965 282.578 274.396 280.56 277.827 278.542C279.429 277.812 281.03 277.082 283.248 276.044C296.386 268.861 308.906 261.986 321.426 255.111C323.352 254.208 325.277 253.306 327.786 252.094C330.723 250.43 333.075 249.076 335.428 247.722C337.293 246.864 339.157 246.006 341.579 244.827C343.299 243.777 344.462 243.049 345.624 242.321C348.975 240.606 352.326 238.891 356.299 236.895C359.265 235.259 361.609 233.903 363.952 232.547C366.202 231.455 368.451 230.363 371.32 228.936C374.6 227.048 377.26 225.496 379.92 223.943C381.453 223.202 382.986 222.46 385.141 221.403C389.133 219.156 392.504 217.223 395.874 215.291C397.83 214.355 399.786 213.42 402.382 212.145C410.937 207.434 418.852 203.062 426.766 198.69C428.58 197.889 430.393 197.088 432.8 195.943C436.051 194.095 438.708 192.592 441.365 191.089C443.724 189.996 446.082 188.904 449.059 187.459C458.35 182.446 467.024 177.784 475.698 173.121C478.543 172.214 481.389 171.306 485.043 170.269C487.355 170.08 488.858 170.02 490.361 169.961C492.5 170.612 494.64 171.264 497.387 172.258C499.413 173.777 500.832 174.954 501.893 176.272C500.368 177.005 499.2 177.597 499.333 177.529C500.333 183.19 501.822 187.996 501.905 192.827C502.094 203.802 501.408 214.789 501.418 225.771C501.429 238.354 501.893 250.935 501.977 263.519C502.003 267.367 501.164 271.221 501.187 275.07C501.219 280.605 501.894 286.138 501.91 291.673C501.942 302.916 501.635 314.16 501.623 325.404C501.615 333.092 501.936 340.779 501.993 348.468C502.063 357.843 502.01 367.219 502.01 376.974C496.647 380.683 496.647 380.683 501.298 385.315C498.989 387.144 496.952 388.808 494.703 390.101C488.506 393.663 482.22 397.07 475.97 400.538C475.499 400.691 475.027 400.843 474.037 401.283C469.544 403.791 465.568 406.012 461.593 408.233C461.031 408.457 460.469 408.681 459.307 409.151C453.784 412.126 448.862 414.855 443.939 417.584C443.462 417.715 442.986 417.846 442.011 418.282C438.975 420.077 436.437 421.567 433.9 423.058C431.138 424.477 428.376 425.895 425.008 427.601C423.668 428.416 422.934 428.945 422.199 429.473C419.413 430.863 416.626 432.254 413.205 433.963C399.734 441.359 386.898 448.436 374.061 455.514C374.061 455.514 373.546 455.587 373.008 455.822C364.164 460.666 355.858 465.274 347.553 469.883C346.611 470.288 345.67 470.692 344.145 471.43C339.917 473.788 336.273 475.813 332.629 477.837C330.689 478.792 328.749 479.748 326.194 481.057C320.526 484.29 315.472 487.169 310.419 490.048C307.743 491.329 305.068 492.609 301.805 494.217C298.966 495.892 296.714 497.24 294.462 498.588C292.823 499.377 291.184 500.166 288.935 501.283C284.967 503.543 281.608 505.477 278.249 507.41C277.415 507.786 276.58 508.161 275.132 508.84C256.282 519.114 238.046 529.083 219.809 539.053C218.589 539.616 217.37 540.179 215.571 541.04C212.683 542.703 210.373 544.067 208.064 545.432C206.471 546.189 204.879 546.946 202.675 548.033C199.511 549.857 196.96 551.351 194.409 552.846C192.435 553.76 190.46 554.675 187.894 555.913C164.329 568.56 141.356 580.882 118.382 593.205C118.009 593.209 117.636 593.214 116.603 593.287C115.142 593.499 114.34 593.642 113.538 593.786C109.272 592.844 105.005 591.902 100.196 590.567C98.5866 589.382 97.5196 588.588 96.4527 587.794C95.9133 586.981 95.3739 586.169 94.4933 584.812C93.4306 582.971 92.7091 581.674 91.9876 580.376C91.9876 580.376 91.9904 579.857 91.7972 579.25C91.4037 575.828 91.0309 573.012 91.029 570.197C90.9939 517.248 90.9937 464.299 91.0122 411.349C91.0149 403.568 91.1497 395.786 91.2234 388.004C91.5247 387.301 91.8259 386.598 92.3447 385.273C93.1828 383.304 93.8032 381.959 94.4237 380.614C94.8041 380.243 95.1844 379.871 95.9531 379.054C98.9254 376.523 101.509 374.438 104.093 372.354C105.407 371.767 106.72 371.181 108.602 370.267C111.381 368.635 113.592 367.331 115.802 366.027C118.048 364.922 120.294 363.816 123.191 362.428C126.512 360.503 129.181 358.861 131.849 357.219C133.781 356.334 135.712 355.449 138.218 354.246C140.657 352.828 142.522 351.727 144.387 350.626C147.605 349.007 150.823 347.387 154.668 345.483C157.419 343.887 159.543 342.574 161.668 341.261C162.885 340.717 164.103 340.173 165.901 339.32C170.72 336.633 174.958 334.254 179.197 331.875C179.197 331.875 179.418 331.886 179.874 331.776C193.256 324.575 206.181 317.483 219.106 310.391C220.622 309.687 222.138 308.982 224.285 307.976C227.544 306.111 230.172 304.548 232.8 302.985C234.752 302.042 236.704 301.099 239.27 299.867C242.833 297.839 245.783 296.099 248.732 294.36Z" fill="black"/>
<path d="M306.213 87.663C307.283 88.1399 308.353 88.6167 310.024 89.3837C317.654 92.3546 324.683 95.0356 331.712 97.7165C332.099 97.9838 332.486 98.251 333.474 98.7479C341.092 101.711 348.108 104.444 355.125 107.177C356.214 107.723 357.302 108.269 359.016 109.068C363.467 110.704 367.293 112.087 371.12 113.47C386.811 119.855 402.502 126.241 418.833 132.927C429.199 137.052 438.925 140.876 448.65 144.699C448.836 145.084 449.022 145.468 448.814 146.171C447.76 146.949 447.099 147.409 446.438 147.869C444.224 149.033 442.011 150.197 439.196 151.672C436.235 153.405 433.874 154.828 431.514 156.25C431.336 156.267 431.158 156.285 430.45 156.592C425.695 159.311 421.47 161.739 417.245 164.168C417.245 164.168 417.008 164.185 416.559 164.317C408.101 169.026 400.091 173.604 392.081 178.181C390.829 178.722 389.576 179.262 387.746 180.108C384.279 182.126 381.39 183.838 378.501 185.55C376.16 186.718 373.818 187.885 370.877 189.421C365.22 192.658 360.162 195.526 355.105 198.395C352.456 199.72 349.807 201.046 346.548 202.687C341.115 205.822 336.29 208.642 331.465 211.462C329.932 212.22 328.398 212.979 326.245 214.065C321.395 216.806 317.165 219.22 312.935 221.634C311.822 222.13 310.708 222.626 309.012 223.433C293.436 232.139 278.444 240.534 263.451 248.93C261.216 250.122 258.982 251.315 256.143 252.777C254.679 253.653 253.818 254.26 252.956 254.866C250.177 256.283 247.397 257.701 243.985 259.414C241.253 261.004 239.152 262.296 237.052 263.588C232.621 265.885 228.19 268.181 223.093 270.685C220.694 270.993 218.962 271.092 217.229 271.191C198.945 263.286 180.662 255.382 161.751 247.165C145.116 240.159 129.108 233.465 113.099 226.771C113.099 226.771 112.975 226.744 112.682 226.449C108.872 224.786 105.354 223.418 101.836 222.049C101.453 221.799 101.07 221.548 100.102 221.015C97.4703 219.986 95.424 219.238 93.3777 218.491C92.9246 218.206 92.4716 217.921 91.601 217.145C91.1309 214.888 91.0323 213.123 91.0322 211.357C91.0306 148.138 91.0374 84.9193 91.0454 21.7004C91.0462 15.6796 90.9354 9.65372 91.175 3.64212C91.2245 2.40086 92.6052 1.21265 93.3724 0C94.5187 0.553583 95.6649 1.10717 97.4186 1.97947C104.594 5.07028 111.163 7.84238 117.731 10.6145C118.951 11.1954 120.171 11.7763 121.958 12.6676C124.966 14.0157 127.391 15.0917 129.85 16.085C150.66 24.493 171.476 32.8859 192.291 41.2834C192.674 41.5481 193.057 41.8128 194.016 42.333C196.315 43.175 198.037 43.7615 199.758 44.3479C200.463 44.7328 201.167 45.1176 202.439 45.7719C206.182 47.2352 209.358 48.429 212.535 49.6228C229.954 56.8398 247.373 64.0568 265.417 71.5679C266.613 71.9812 267.184 72.1004 267.754 72.2196C269.295 72.904 270.836 73.5884 272.986 74.5929C284.468 79.163 295.34 83.413 306.213 87.663Z" fill="black"/>
<path d="M458.372 449.982C459.796 450.573 461.22 451.163 463.261 452.002C465.966 453.148 468.055 454.046 470.143 454.943C471.313 455.679 472.483 456.415 474.122 457.464C475.118 457.98 475.645 458.184 476.173 458.387C478.111 459.843 480.049 461.299 482.485 463.193C485.148 465.479 487.312 467.326 489.476 469.172C490.168 470.08 490.86 470.988 491.917 472.335C492.819 473.311 493.354 473.848 493.89 474.386C494.24 474.944 494.591 475.503 495.327 476.567C497.908 480.354 500.103 483.635 502.297 486.915C502.491 487.483 502.685 488.052 503.139 489.21C505.488 496.047 507.575 502.295 509.662 508.542C509.61 517.735 509.557 526.929 509.347 536.926C508.546 540.67 507.902 543.61 507.257 546.549C506.675 547.981 506.094 549.414 505.28 551.49C503.288 555.943 501.527 559.752 499.767 563.561C499.212 564.31 498.657 565.06 497.773 566.348C495.747 569.262 494.05 571.638 492.353 574.013C491.501 574.84 490.648 575.667 489.35 576.947C487.154 579.169 485.403 580.937 483.651 582.705C481.788 584.021 479.925 585.337 477.459 587.002C473.542 589.373 470.227 591.394 466.912 593.415C462.559 594.875 458.206 596.334 453.19 597.931C452.004 598.302 451.48 598.535 450.956 598.768C447.706 599.139 444.456 599.51 440.275 599.914C435.05 599.965 430.754 599.983 426.459 600C425.662 599.894 424.865 599.787 423.341 599.556C420.343 599 418.073 598.569 415.802 598.139C415.343 597.977 414.884 597.816 413.787 597.468C412.265 597.096 411.382 596.91 410.498 596.725C406.983 595.235 403.469 593.745 399.376 591.911C395.936 589.948 393.075 588.33 390.213 586.711C387.423 584.41 384.634 582.11 381.448 580.052C381.051 580.296 381.022 580.159 381.022 580.159C380.395 579.071 379.768 577.983 378.72 576.408C376.816 574.226 375.334 572.531 373.851 570.835C373.547 570.276 373.244 569.718 372.589 568.657C371.172 566.605 370.106 565.055 369.04 563.506C368.835 562.946 368.631 562.386 368.146 561.309C367.149 559.614 366.432 558.435 365.715 557.256C365.553 556.666 365.391 556.075 364.981 554.921C363.945 552.389 363.158 550.421 362.37 548.453C361.366 543.45 360.363 538.447 359.312 532.613C358.16 519.373 359.849 507.297 363.588 495.466C364.305 493.946 365.023 492.425 366.041 490.335C366.857 488.478 367.372 487.192 367.887 485.905C369.616 483.289 371.345 480.674 373.462 477.536C375.882 474.397 377.913 471.78 379.944 469.163C379.944 469.163 379.672 468.914 380.105 468.927C381.402 467.96 382.266 466.981 383.131 466.002C383.131 466.002 382.85 465.729 383.321 465.75C394.6 456.109 407.462 450.673 421.421 447.495C424.751 447.196 428.082 446.898 432.206 446.579C434.236 446.471 435.473 446.384 436.71 446.297C437.249 446.385 437.788 446.473 439.076 446.622C443.76 447.201 447.696 447.719 451.631 448.237C452.115 448.416 452.599 448.595 453.74 448.947C455.722 449.408 457.047 449.695 458.372 449.982Z" fill="black"/>
<path d="M501.474 384.981C496.647 380.683 496.647 380.683 502.01 376.974C502.01 367.22 502.063 357.843 501.993 348.468C501.936 340.779 501.615 333.092 501.623 325.404C501.635 314.161 501.942 302.917 501.91 291.673C501.894 286.138 501.219 280.606 501.187 275.07C501.164 271.221 502.003 267.367 501.977 263.519C501.893 250.936 501.429 238.354 501.418 225.771C501.408 214.79 502.094 203.802 501.905 192.827C501.822 187.997 500.333 183.19 499.333 177.53C499.2 177.597 500.368 177.005 502.194 176.366C503.836 177.392 504.819 178.464 505.802 179.537C506.018 180.292 506.233 181.047 506.604 182.62C507.41 187.472 508.62 191.505 508.627 195.54C508.734 251.994 508.695 308.449 508.616 364.904C508.61 368.583 507.988 372.261 507.652 375.94C506.99 377.158 506.329 378.377 505.36 380.135C503.859 382.111 502.666 383.546 501.474 384.981Z" fill="black"/>
</g>
<defs>
<clipPath id="clip0_109_1302">
<rect width="600" height="600" fill="white"/>
</clipPath>
</defs>
</svg>
