<svg width="879" height="232" viewBox="0 0 879 232" fill="none" xmlns="http://www.w3.org/2000/svg">
<g clip-path="url(#clip0_123_58)">
<path d="M511.585 26.3592V0L598.194 34.9663V56.4841L511.585 91.4504V64.5532L562.152 45.7252L511.585 26.3592Z" fill="#676767" fill-opacity="0.403922"/>
<path d="M33.3525 231.316C15.0624 231.316 0 222.171 0 201.729V200.654C0 175.908 21.5177 167.301 47.877 167.301H60.2497V162.46C60.2497 152.239 55.9461 146.321 45.1873 146.321C35.5043 146.321 30.6628 151.701 30.1248 159.232H3.22766C5.37944 136.638 23.1316 125.879 46.8011 125.879C71.0086 125.879 88.7607 136.1 88.7607 161.384V229.165H61.3256V217.33C55.9461 224.861 46.8011 231.316 33.3525 231.316ZM60.2497 195.812V186.129H48.9529C34.9663 186.129 27.9731 189.895 27.9731 199.04V200.116C27.9731 207.109 32.2766 211.95 41.9596 211.95C51.6426 211.412 60.2497 206.033 60.2497 195.812ZM152.776 231.316C124.803 231.316 104.361 214.102 104.361 179.674V178.06C104.361 143.632 125.879 125.341 152.776 125.341C175.908 125.341 194.736 137.176 196.887 163.535H169.99C168.376 153.852 162.997 147.397 153.314 147.397C141.479 147.397 132.872 157.08 132.872 176.984V180.212C132.872 200.654 140.403 209.799 153.314 209.799C162.997 209.799 169.99 202.805 171.604 191.509H197.425C195.812 215.178 180.211 231.316 152.776 231.316ZM258.213 231.316C230.24 231.316 209.798 214.102 209.798 179.674V178.06C209.798 143.632 231.316 125.341 258.213 125.341C281.345 125.341 300.173 137.176 302.324 163.535H275.427C273.813 153.852 268.434 147.397 258.751 147.397C246.916 147.397 238.309 157.08 238.309 176.984V180.212C238.309 200.654 245.84 209.799 258.751 209.799C268.434 209.799 275.427 202.805 277.041 191.509H302.862C301.248 215.178 285.648 231.316 258.213 231.316ZM364.188 231.316C335.139 231.316 315.235 214.102 315.235 180.212V178.06C315.235 144.169 336.215 125.341 363.65 125.341C388.933 125.341 409.913 139.328 409.913 173.218V185.591H343.746C344.822 203.881 352.891 210.875 364.726 210.875C375.485 210.875 381.402 204.957 383.554 197.964H409.913C406.685 216.792 390.547 231.316 364.188 231.316ZM344.284 166.763H381.94C381.402 151.701 374.409 145.245 363.112 145.245C354.505 145.783 346.436 150.625 344.284 166.763ZM427.127 128.031H455.638V143.094C460.48 133.411 470.701 125.879 486.301 125.879C504.591 125.879 516.964 137.176 516.964 161.384V229.165H488.453V165.687C488.453 153.852 483.611 148.473 473.39 148.473C463.707 148.473 455.638 154.39 455.638 167.301V229.165H427.127V128.031ZM569.144 97.3684V128.031H588.51V149.011H569.144V196.888C569.144 204.419 572.372 208.185 579.365 208.185C583.669 208.185 586.359 207.647 589.048 206.571V228.627C585.821 229.703 579.903 230.778 572.91 230.778C550.854 230.778 540.633 220.558 540.633 200.116V149.011H528.799V128.031H540.633V109.203L569.144 97.3684ZM695.023 229.165H667.05V214.102C662.209 223.785 652.526 231.316 637.463 231.316C619.173 231.316 605.725 220.02 605.725 196.35V128.031H634.236V192.584C634.236 204.419 639.077 209.799 648.76 209.799C658.443 209.799 666.512 203.343 666.512 190.971V128.031H695.023V229.165ZM716.003 128.031H744.514V146.859C750.431 133.411 760.114 126.955 775.177 126.955V154.928C755.811 154.928 744.514 160.846 744.514 177.522V229.703H716.003V128.031ZM832.737 231.316C803.688 231.316 783.784 214.102 783.784 180.212V178.06C783.784 144.169 804.764 125.341 832.199 125.341C857.482 125.341 878.462 139.328 878.462 173.218V185.591H812.833C813.909 203.881 821.978 210.875 833.813 210.875C844.572 210.875 850.489 204.957 852.641 197.964H879C874.696 216.792 859.096 231.316 832.737 231.316ZM812.295 166.763H850.489C849.951 151.701 842.958 145.245 831.661 145.245C823.054 145.783 814.985 150.625 812.295 166.763Z" fill="#676767"/>
</g>
<defs>
<clipPath id="clip0_123_58">
<rect width="879" height="231.316" fill="white"/>
</clipPath>
</defs>
</svg>
