<svg width="2680" height="1318" viewBox="0 0 2680 1318" fill="none" xmlns="http://www.w3.org/2000/svg">
<g clip-path="url(#clip0_123_250)">
<path d="M2511.7 493.021C2511.91 493.321 2560.96 562.592 2560.96 562.592L2528.57 597.867C2525.34 601.38 2521.78 605.526 2517.86 610.08C2488.07 644.646 2438.22 702.501 2359 720.963C2342.46 724.813 2326.15 726.767 2310.52 726.767C2285.86 726.767 2265.46 722.084 2249.11 715.705C2230.68 728.947 2212.18 738.855 2189.4 748.159C2157.58 761.155 2126.84 767.742 2098.06 767.742C2039.88 767.742 1991.66 741.442 1962.29 693.68C1955.63 682.859 1950.14 671.234 1945.82 658.93L1783.78 997.097C1768.17 1029.7 1739.01 1053.11 1703.77 1061.33L1404.52 1131.06L1518.79 892.563C1485.35 886.555 1456.38 870.83 1433.92 846.58C1378.56 911.709 1290.15 977.147 1199.32 998.318C1171.95 1004.69 1145.33 1007.92 1120.21 1007.92C1049.58 1007.92 990.476 982.697 950.626 936.355C945.742 951.576 939.68 966.876 932.347 982.184C889.601 1071.38 786.692 1189.84 539.171 1247.6C486.096 1259.99 377.692 1272.8 288.159 1272.8H257.625L51.3917 985.013L184.221 707.721C213.096 647.534 164.683 623.076 154.617 625.421L353.267 210.929L458.692 186.342C581.955 156.571 683.93 141.425 761.326 141.425C769.909 141.425 778.297 141.617 786.255 141.996C900.338 147.425 989.809 195.042 1038.19 276.075C1066.78 323.975 1078.03 380.125 1071.98 438.692C1113.28 400.492 1174.8 355.1 1247.19 338.234C1271.18 332.642 1294.34 329.809 1316.02 329.809C1386.09 329.809 1443.2 359.2 1476.8 412.567C1483.1 422.567 1488.35 433.221 1492.63 444.296C1655.18 226.2 1889.17 184.284 1900.4 182.392L1936.95 176.234L2038.69 318.721C2201.3 98.8709 2436.68 56.6792 2447.95 54.7876L2484.5 48.6292L2628.2 249.904L2511.7 493.021ZM2679.82 245.425L2664.51 223.979L2520.81 22.7042L2504.6 0L2477.09 4.63334L2440.54 10.7917C2429.34 12.675 2210.97 51.7418 2040.91 245.067L1973.26 150.308L1957.05 127.604L1929.54 132.242L1892.98 138.396C1881.91 140.263 1667.92 178.538 1498.67 366.709C1455.81 313.95 1391.96 285.192 1316.02 285.192C1290.94 285.192 1264.38 288.417 1237.07 294.779C1190.68 305.592 1148.7 326.438 1112.71 350.1C1106.32 315.913 1094.21 283.296 1076.31 253.317C1020.06 159.092 917.801 103.804 788.367 97.6459C779.742 97.2334 770.646 97.0209 761.326 97.0209C680.417 97.0209 575.084 112.554 448.3 143.171L322.429 172.529L87.2209 663.313L109.55 658.109C120.054 655.663 130.321 659.217 137.058 667.613C143.796 676.009 145.042 686.817 140.392 696.521L0 989.518L234.821 1317.2H288.159C380.904 1317.2 493.75 1303.8 549.263 1290.84C805.851 1230.96 918.492 1107.19 967.905 1010.42C1010.29 1037.97 1062.09 1052.54 1120.21 1052.54C1148.73 1052.54 1178.75 1048.91 1209.43 1041.77C1297.6 1021.22 1379.11 966.484 1438.09 907.742C1444.15 911.672 1450.36 915.363 1456.84 918.601L1364.28 1111.78L1324.13 1195.61L1414.65 1174.51L1713.9 1104.78C1762.4 1093.47 1802.53 1061.25 1824.02 1016.36L1950.95 751.467C1988.48 790.542 2040.16 812.359 2098.06 812.359C2132.66 812.359 2169.07 804.655 2206.27 789.459C2224.9 781.851 2240.88 773.909 2255.96 764.684C2273.33 769.138 2291.6 771.384 2310.52 771.384C2329.56 771.384 2349.27 769.038 2369.12 764.413C2462.52 742.647 2520.51 675.355 2551.65 639.205L2552.71 637.98C2556.06 634.092 2558.96 630.734 2561.41 628.067L2593.82 592.767L2618.2 566.221L2597.37 536.805C2597.37 536.805 2577.73 509.071 2563.27 488.65L2668.44 269.184L2679.82 245.425Z" fill="#E5E5E5"/>
<path d="M1697.48 656.83C1636.43 681.755 1629.06 641.505 1655.86 585.571C1701.53 490.271 1790.7 462.259 1790.69 462.259C1790.69 462.259 1697.48 656.826 1697.48 656.83ZM1910.24 240.85C1910.24 240.85 1620.8 286.079 1481.98 573.913C1401.64 740.513 1464.12 883.772 1618.74 821.147L1511.35 1045.3L1690.31 1003.6C1707.83 999.513 1722.55 987.697 1730.32 971.476L2012.07 383.467L1910.24 240.85Z" fill="#E5E5E5"/>
<path d="M2245.02 529.221C2183.97 554.146 2176.61 513.896 2203.41 457.963C2249.07 362.663 2338.24 334.65 2338.24 334.65C2338.24 334.65 2245.03 529.217 2245.02 529.221ZM2457.9 468.096L2559.62 255.859L2457.79 113.242C2457.79 113.242 2167.8 158.209 2029.53 446.305C1949.96 612.109 2011.86 756.638 2166.99 693.276C2197.42 680.846 2217.2 667.809 2243.77 643.334C2243.77 643.334 2275.1 679.642 2345.54 663.226C2415.99 646.809 2459.66 585.255 2484.9 557.763L2464.4 528.805C2451.64 511.205 2446.1 492.734 2457.9 468.096Z" fill="#E5E5E5"/>
<path d="M1210 575.48C1210.23 575.25 1210.41 575.1 1210.63 574.884C1223.89 560.2 1242.49 547.096 1257.04 544.192C1284.73 538.663 1289.63 563.1 1282.23 577.809C1258.23 625.546 1174.17 636.425 1174.17 636.425C1174.17 636.425 1187.92 598.03 1210 575.48ZM1431.18 576.838C1470.63 494.505 1429.57 352.367 1258.88 392.142C1148.4 417.888 1040.79 535.492 992.817 635.617C900.063 829.196 989.022 982.213 1184.1 936.755C1272.77 916.092 1369.49 838.03 1412.61 770.005L1378.42 722.109C1378.42 722.109 1329.17 768.317 1260.36 784.351C1195.4 799.488 1165.71 770.363 1158.62 744.092L1158.29 743.117C1182.14 742.163 1202.37 739.651 1213.86 736.971C1277.79 722.076 1384.67 673.901 1431.18 576.838Z" fill="#E5E5E5"/>
<path d="M717.813 529.163C692.942 580.155 626.225 597.021 586.492 597.034L651.709 461.292C717.03 446.071 741.842 479.892 717.813 529.163ZM576.821 881.538C546.646 943.409 465.692 963.876 417.479 963.888L496.613 799.188C575.871 780.721 605.98 821.755 576.821 881.538ZM783.438 201.213C706.563 197.554 596.588 214.025 472.154 244.075L394.438 262.204L254.358 554.467C254.358 554.467 262.825 552.909 267.671 552.109C294.733 547.63 314.408 573.296 302.758 597.613L120.017 978.997L288.079 1213.52C372.684 1213.53 476.967 1201.25 525.704 1189.87C717.405 1145.13 830.505 1057.55 878.888 956.572C928.751 852.501 911.172 747.884 817.951 681.184C817.951 681.184 934.126 634.505 985.247 527.809C1063.94 363.579 979.201 210.529 783.438 201.213Z" fill="#E5E5E5"/>
</g>
<defs>
<clipPath id="clip0_123_250">
<rect width="2679.82" height="1317.2" fill="white"/>
</clipPath>
</defs>
</svg>
