<svg width="766" height="342" viewBox="0 0 766 342" fill="none" xmlns="http://www.w3.org/2000/svg">
<g clip-path="url(#clip0_123_29)">
<path d="M464.451 68.174H398.575H377.893V76.0893C381.979 76.5999 385.298 76.8553 388.107 77.6213C391.426 78.3873 393.724 79.4086 395.511 80.9406C400.618 85.2813 400.618 93.7073 400.618 108.517V208.863C400.618 229.289 402.405 258.142 373.553 257.631C361.041 257.376 348.53 248.695 344.445 232.609H334.487C338.572 259.674 353.126 278.058 388.107 278.058C417.725 278.058 444.28 264.27 444.28 218.055V140.178V108.517C444.28 93.4519 444.28 85.7919 449.387 81.1959C452.706 78.3873 455.259 77.1106 464.451 76.0893V68.4293V68.174Z" fill="#676767"/>
<path d="M564.031 68.174H477.473V75.5786V76.0893C486.41 76.8553 489.474 78.3873 492.538 81.1959C496.623 84.7706 497.389 90.3879 497.389 100.346C497.389 103.41 497.389 106.474 497.389 110.304V230.311C497.389 233.885 497.389 237.205 497.389 240.269C497.134 249.971 496.623 256.099 492.538 259.419C489.218 262.227 486.665 263.504 477.473 264.525V265.036V272.441H564.031H564.286H608.204L621.992 232.353H612.034C602.076 254.312 586.5 256.865 572.202 256.865C560.456 256.865 552.796 256.099 547.434 252.78C543.094 249.971 541.562 242.567 541.306 229.8V110.815V108.517C541.306 93.4519 541.306 85.2813 546.413 80.9406C549.732 78.1319 555.094 77.1106 564.286 76.3446L564.031 68.174Z" fill="#676767"/>
<path d="M708.039 68.174H621.481V75.5786V76.0893C630.418 76.8553 633.482 78.3873 636.546 81.1959C640.631 84.7706 641.397 90.3879 641.397 100.346C641.397 103.41 641.397 106.474 641.397 110.304V230.311C641.397 233.885 641.397 237.205 641.397 240.269C641.142 249.971 640.631 256.099 636.546 259.419C633.226 262.227 630.673 263.504 621.481 264.525V265.036V272.441H708.039H708.294H752.212L766 232.353H756.042C746.084 254.312 730.508 256.865 716.21 256.865C704.464 256.865 696.804 256.099 691.442 252.78C687.102 249.971 685.57 242.567 685.314 229.8V110.815V108.517C685.314 93.4519 685.314 85.2813 690.421 80.9406C693.74 78.1319 699.102 77.1106 708.294 76.3446V68.174H708.039Z" fill="#676767"/>
<path d="M127.156 334.487C131.241 332.699 135.071 330.401 138.901 327.848C139.667 327.337 140.433 326.827 141.199 326.316C145.795 322.997 149.88 319.167 153.966 314.571C159.072 309.209 163.668 303.081 168.009 296.697C171.328 291.846 174.137 286.484 176.946 281.122C187.414 260.185 194.308 237.205 197.883 214.48C200.181 199.671 201.202 184.861 201.202 170.307C201.202 155.753 200.181 140.944 197.883 126.135C194.308 103.41 187.67 80.1747 176.946 59.4927C175.669 57.1947 174.392 54.6414 173.116 52.3434C167.498 62.5567 162.902 73.536 159.072 85.026C165.966 105.453 170.052 127.156 171.584 148.604C172.094 155.753 172.35 163.413 172.35 170.563C172.35 177.712 172.094 185.372 171.584 192.521C169.796 218.821 164.434 245.12 154.221 269.632C150.391 279.079 145.795 288.271 140.178 296.953C138.901 298.995 137.88 301.038 136.348 303.081C133.539 307.166 130.73 310.996 127.666 315.081C124.092 319.422 120.262 323.763 115.921 327.848C111.58 332.189 106.984 336.019 101.878 339.593C101.367 339.849 101.112 340.104 100.601 340.359V340.87C109.538 340.615 118.985 338.317 127.156 334.487Z" fill="#676767"/>
<path d="M180.266 334.487C184.351 332.699 188.181 330.401 192.011 327.848C192.777 327.337 193.543 326.827 194.309 326.316C209.884 314.571 221.374 298.74 230.056 281.633C240.524 260.695 247.418 237.715 250.993 214.991C253.291 200.181 254.312 185.372 254.312 170.818C254.312 156.264 253.291 141.455 250.993 126.645C247.418 103.921 240.78 80.6854 230.056 60.0034C222.14 44.1727 211.416 29.3634 197.628 17.8734C193.288 22.4694 189.202 27.5761 185.372 32.9381C186.649 34.7254 187.926 36.5127 189.202 38.3001C211.161 70.9827 221.885 109.793 224.438 148.859C224.949 156.009 225.204 163.669 225.204 170.818C225.204 177.967 224.949 185.627 224.438 192.777C221.885 231.843 211.161 270.909 189.202 303.336C186.394 307.421 183.585 311.251 180.521 315.337C176.946 319.677 173.116 324.018 168.776 328.103C164.435 332.444 159.839 336.274 154.732 339.849C154.222 340.104 153.966 340.359 153.456 340.615V341.125C162.903 340.615 172.095 338.317 180.266 334.487Z" fill="#676767"/>
<path d="M247.673 326.061C263.248 314.315 274.738 298.485 283.42 281.377C293.888 260.44 300.782 237.46 304.357 214.735C306.655 199.926 307.676 185.117 307.676 170.563C307.676 156.009 306.655 141.199 304.357 126.39C300.782 103.665 294.144 80.43 283.42 59.748C274.738 42.6407 262.993 26.2993 247.673 15.0647C235.928 5.87267 221.374 0.255333 207.075 0V0.510667C221.118 10.2133 233.119 23.746 242.311 38.0447C264.27 70.7273 274.994 109.538 277.547 148.604C278.058 155.753 278.313 163.413 278.313 170.563C278.313 177.712 278.058 185.372 277.547 192.521C274.994 231.587 264.27 270.653 242.311 303.081C232.864 317.124 220.863 330.657 206.82 340.615V341.125C221.374 340.615 235.928 334.997 247.673 326.061Z" fill="#676767"/>
<path d="M180.265 6.38333C176.18 8.17067 172.35 10.4687 168.52 13.022C167.754 13.5327 166.988 14.0433 166.222 14.554C161.881 17.8733 157.541 21.7033 153.455 26.044C148.349 31.406 143.753 37.534 139.412 43.9173C136.093 48.7687 133.284 54.1307 130.475 59.4927C120.007 80.43 113.113 103.41 109.538 126.135C107.24 140.944 106.219 155.753 106.219 170.307C106.219 184.861 107.24 199.671 109.538 214.48C113.113 237.205 119.751 260.44 130.475 281.122C131.752 283.42 133.029 285.973 134.305 288.271C139.923 278.058 144.519 267.079 148.349 255.589C141.455 235.162 137.369 213.459 135.837 192.011C135.327 184.861 135.071 177.201 135.071 170.052C135.071 162.903 135.327 155.243 135.837 148.093C137.625 121.794 142.987 95.4947 153.2 70.9827C157.285 61.7907 161.881 52.3433 167.499 43.662C168.775 41.6193 169.797 39.5767 171.329 37.534C174.137 33.4487 176.946 29.6187 180.01 25.5333C183.585 21.1927 187.415 16.852 191.755 12.7667C196.096 8.426 200.692 4.596 205.799 1.02133C206.309 0.766 206.565 0.510667 207.075 0.255333V0C197.883 0.255333 188.947 2.55333 180.265 6.38333Z" fill="#676767"/>
<path d="M127.156 6.38333C123.07 8.17067 119.24 10.4687 115.41 13.022C114.644 13.5327 113.878 14.0433 113.112 14.554C97.7922 26.2993 86.3022 42.13 77.3656 59.2373C66.8969 80.1747 60.0029 103.155 56.4282 125.879C54.1302 140.944 53.1089 155.498 53.1089 170.307C53.1089 184.861 54.1302 199.671 56.4282 214.48C60.0029 237.205 66.6416 260.44 77.3656 281.122C85.2809 296.953 96.0049 311.762 109.793 323.252C114.134 318.656 118.219 313.549 122.049 308.187C120.772 306.4 119.496 304.613 118.219 302.825C96.2602 270.143 85.5362 231.332 82.9829 192.266C82.4722 185.117 82.2169 177.457 82.2169 170.307C82.2169 163.158 82.4722 155.498 82.9829 148.349C85.5362 109.283 96.2602 70.2167 118.219 37.7893C121.028 33.704 123.836 29.874 126.9 25.7887C130.475 21.448 134.305 17.1073 138.646 13.022C142.986 8.93667 147.582 5.10667 152.434 1.78733C152.944 1.532 153.2 1.27667 153.71 1.02133V0C144.774 0.255333 135.582 2.55333 127.156 6.38333Z" fill="#676767"/>
<path d="M60.0033 14.8093C44.428 26.5547 32.938 42.3853 24.2567 59.4927C13.788 80.43 6.894 103.41 3.31933 126.135C1.02133 141.199 0 155.753 0 170.563C0 185.117 1.02133 199.926 3.31933 214.735C6.894 237.46 13.5327 260.695 24.2567 281.377C32.938 298.485 44.6833 314.826 60.0033 326.061C71.7487 334.487 86.0473 340.359 100.601 340.87V340.359C86.3027 330.657 74.5573 317.124 65.11 302.825C43.1513 270.143 32.4273 231.332 29.874 192.266C29.3633 185.117 29.108 177.457 29.108 170.307C29.108 163.158 29.3633 155.498 29.874 148.349C32.4273 109.283 43.1513 70.2167 65.11 37.7893C74.302 23.746 86.3027 10.2133 100.601 0.510667V0C86.0473 0.255333 71.4933 5.87267 60.0033 14.8093Z" fill="#676767"/>
<path d="M163.157 323.507C167.498 318.911 171.583 313.805 175.413 308.443C174.137 306.655 172.86 304.868 171.583 303.081C170.307 301.038 169.03 298.995 167.753 296.953C163.668 303.081 159.072 309.464 153.71 314.826C156.519 317.89 160.093 320.699 163.157 323.507Z" fill="#676767"/>
<path d="M192.009 327.848C188.435 330.401 184.605 332.444 180.264 334.487C188.435 338.317 197.882 340.615 206.819 340.87V340.36C201.712 336.785 196.605 332.444 192.009 327.848Z" fill="#676767"/>
<path d="M148.859 340.615C150.391 340.36 151.667 340.104 153.199 340.104C151.667 339.083 150.391 338.062 148.859 337.04C145.284 334.232 141.965 331.423 138.901 328.359C135.326 330.912 131.496 332.955 127.155 334.998C132.517 337.551 138.645 339.338 144.518 340.36C146.05 340.104 147.327 340.36 148.859 340.615ZM153.71 340.87V340.36C153.455 340.104 153.199 340.104 152.944 339.849C151.412 340.104 150.135 340.36 148.603 340.36C150.391 340.87 152.178 340.87 153.71 340.87Z" fill="#676767"/>
<path d="M144.518 17.618C140.178 22.214 136.092 27.3207 132.262 32.6827C133.539 34.47 134.816 36.2574 136.092 38.0447C137.369 40.0874 138.646 42.13 139.922 44.1727C144.008 38.0447 148.604 31.6614 153.966 26.2994C150.902 22.98 147.838 20.1714 144.518 17.618Z" fill="#676767"/>
<path d="M115.41 13.2773C118.985 10.724 122.815 8.68133 127.156 6.63867C118.985 2.55333 109.538 0.255333 100.601 0V0.510667C105.963 4.08533 110.814 8.426 115.41 13.2773Z" fill="#676767"/>
<path d="M180.266 6.38333C174.904 3.83 168.776 2.04267 162.903 1.02133C161.371 0.766 160.094 0.510667 158.562 0.510667C157.03 0.255333 155.498 0 153.711 0V0.510667C153.966 0.766 154.222 0.766 154.477 1.02133C156.009 2.04267 157.286 3.064 158.818 4.08533C162.392 6.894 165.712 9.70267 168.776 12.7667C172.606 10.4687 176.436 8.17067 180.266 6.38333Z" fill="#676767"/>
</g>
<defs>
<clipPath id="clip0_123_29">
<rect width="766" height="341.125" fill="white"/>
</clipPath>
</defs>
</svg>
