<svg width="1120" height="95" viewBox="0 0 1120 95" fill="none" xmlns="http://www.w3.org/2000/svg">
<path d="M390.326 94.85C383.558 92.98 377.389 91.2126 372.504 86.2017C367.358 80.9242 364.277 74.5234 364.111 67.6541C363.578 45.705 363.913 23.735 363.913 1.35631C370.219 1.35631 376.247 1.35631 382.9 1.35631C382.9 3.22524 382.9 5.00089 382.9 6.77654C382.9 23.259 382.466 39.7592 383.134 56.2145C383.371 62.0367 385.409 68.2355 388.226 73.3864C391.556 79.4751 398.195 80.9081 404.803 79.7621C412.123 78.4927 416.923 73.8946 418.776 66.6503C419.504 63.8082 419.836 60.7925 419.853 57.853C419.95 40.8716 419.9 23.8893 419.9 6.90738C419.9 5.11508 419.9 3.32279 419.9 1.24463C426.664 1.24463 432.906 1.24463 439.563 1.24463C439.678 2.7258 439.884 4.15928 439.886 5.593C439.907 24.2398 440.379 42.9055 439.649 61.5237C439.381 68.3525 437.151 75.4959 434.198 81.729C430.484 89.5671 422.506 92.4031 414.171 94.4939C406.227 94.8273 398.509 94.8737 390.326 94.85Z" fill="#676767"/>
<path d="M516.8 17.9766C510.985 16.9642 505.202 15.4557 499.346 15.0748C493.112 14.6693 488.415 18.2619 486.709 23.4117C484.956 28.7049 486.122 32.1069 491.056 34.475C498.051 37.8323 505.2 40.8674 512.267 44.0767C529.962 52.1126 529.676 78.1371 518.23 86.8552C513.92 90.1382 508.378 91.8041 503.171 94.4942C494.894 94.8276 486.843 94.874 478.326 94.8503C477.756 94.6515 477.675 94.4493 477.542 94.405C474.054 93.2468 467.835 92.53 467.578 90.8811C466.787 85.8066 468.276 80.3767 468.893 74.9619C474.884 76.6578 480.011 78.3146 485.24 79.5342C490.96 80.8681 496.77 79.9794 501.322 76.5373C506.929 72.296 508.888 65.1723 499.52 59.9321C493.506 56.5685 487.05 53.9428 480.651 51.3336C461.837 43.6624 461.361 16.5028 475.04 6.4902C478.651 3.84669 483.263 2.56925 487.635 0.38028C495.968 0.113991 504.08 0.131965 512.566 0.123535C519.239 1.39271 522.382 4.56847 519.949 11.3773C519.303 13.1839 519.249 15.2018 518.512 17.5325C517.667 17.9537 517.234 17.9651 516.8 17.9766Z" fill="#676767"/>
<path d="M574.299 94.8499C572.156 94.3433 570.451 93.9066 568.105 93.3058C568.105 68.3276 568.105 43.0014 568.105 17.1889C559.283 17.1889 551.044 17.1889 541.925 17.1889C541.925 12.1696 541.78 7.59021 542.066 3.03788C542.114 2.27304 544.025 1.6252 545.504 0.891075C564.334 0.659477 582.735 0.459717 601.135 0.261238C603.476 0.235992 605.816 0.217476 608.548 0.146484C610.45 0.568314 611.961 1.03949 613.676 1.57461C613.676 6.40774 613.676 11.329 613.676 16.7244C604.904 16.7244 596.339 16.7244 587.063 16.7244C587.063 42.6307 587.063 68.0785 587.063 93.5843C584.733 93.8346 583.102 94.0098 581.208 94.483C578.876 94.8273 576.807 94.8736 574.299 94.8499Z" fill="#676767"/>
<path d="M912.55 0C918.608 3.4622 924.911 6.11511 929.613 10.4887C937.493 17.8175 940.381 27.8476 942.016 38.393C943.531 48.166 941.937 57.522 939.872 66.8981C936.889 80.4385 924.662 92.4009 912.168 94.4937C905.262 94.8667 898.494 94.8896 891.251 94.8771C885.313 91.8672 879.189 89.6781 874.528 85.7521C865.296 77.9763 862.014 66.7714 861.084 55.2608C860.335 45.9965 860.476 36.6485 863.568 27.4584C867.959 14.4078 875.936 5.30951 889.478 0.944504C897.262 0.610741 904.668 0.287491 912.55 0ZM892.039 85.7929C894.145 86.8446 896.149 88.2688 898.376 88.8822C907.141 91.2964 914.056 85.8976 921.318 82.6728C923.712 81.6098 927.56 79.1624 924.91 74.1089C934.513 61.162 934.062 33.8458 925.073 21.032C913.304 4.25482 889.119 4.44646 878.444 20.8156C870.635 32.7902 869.148 45.8819 872.247 59.399C874.842 70.7132 879.735 80.8387 892.039 85.7929Z" fill="#676767"/>
<path d="M736.52 0.906046C738.857 1.28037 740.79 1.54357 742.679 1.99174C746.114 2.80664 747.769 4.80596 746.674 8.46414C746.257 9.85747 745.859 11.2565 745.417 12.7749C724.811 6.37753 704.437 3.29394 691.021 25.4296C681.535 41.0806 682.259 58.0081 692.767 72.8951C702.194 86.2515 718.71 90.0895 740.9 83.5432C740.9 78.3643 740.9 73.0592 740.9 67.754C740.9 62.6334 740.9 57.5128 740.9 52.0777C733.854 52.0777 727.247 52.0777 720.272 52.0777C720.272 49.0457 720.272 46.3245 720.272 43.262C730.195 43.262 740.254 43.262 750.9 43.262C750.9 51.3603 750.9 59.4602 750.9 67.5602C750.9 72.8899 750.512 78.2562 751.009 83.5391C751.511 88.8665 749.395 91.3651 744.366 92.163C741.33 92.6448 738.346 93.4596 735.184 94.4842C726.929 94.8665 718.827 94.8894 710.251 94.877C701.362 91.9424 693.388 88.6215 687.012 81.7883C681.077 75.4278 677.693 67.9907 676.095 59.889C673.514 46.8074 674.42 33.8629 680.933 21.8118C687.329 9.97561 697.322 3.11352 710.63 0.384798C719.213 0.314859 727.655 0.596591 736.52 0.906046Z" fill="#676767"/>
<path d="M808.513 0.935547C822.419 1.59261 830.13 5.94169 832.669 15.3089C836.395 29.0545 834.603 40.306 818.461 46.1406C820.934 50.1462 823.939 54.1347 826.02 58.5575C831.068 69.2835 835.695 80.2076 840.457 91.0674C840.763 91.7656 840.769 92.5957 840.961 93.6139C839.594 93.7978 838.493 93.9461 837.245 94.441C834.964 94.8289 832.829 94.8701 830.238 94.8751C827.316 88.1948 824.933 81.5192 822.36 74.9175C820.536 70.2377 818.686 65.5424 816.436 61.061C813.282 54.7795 809.219 49.6126 800.906 50.8818C798.491 51.2505 795.973 50.9385 793.037 50.9385C793.037 65.2741 793.037 79.3193 793.037 93.6477C789.519 93.6477 786.466 93.6477 783.057 93.6477C783.002 92.4404 782.907 91.3224 782.907 90.2044C782.899 61.9307 782.869 33.6568 782.989 5.38355C782.995 3.90058 784.289 2.42308 785.42 0.938438C793.265 0.934982 800.673 0.936104 808.513 0.935547ZM792.9 29.428C792.9 33.5225 792.9 37.617 792.9 41.799C801.471 42.1851 809.271 42.131 816.464 38.0373C822.226 34.7577 824.859 29.0879 823.887 21.6723C823.27 16.9579 819.237 11.9526 814.234 11.219C807.314 10.2044 800.271 10.0326 792.9 9.47095C792.9 16.4926 792.9 22.4617 792.9 29.428Z" fill="#676767"/>
<path d="M86.2341 94.8766C85.4851 93.7508 84.9402 92.6612 84.9385 91.5707C84.8924 61.5948 84.9016 31.6189 84.9016 1.29102C88.1646 1.29102 91.2233 1.29102 94.7865 1.29102C94.7865 14.6128 94.7865 28.0122 94.7865 41.6709C110.337 41.6709 125.391 41.6709 140.773 41.6709C140.773 28.2086 140.773 14.9356 140.773 1.30204C144.144 1.30204 147.202 1.30204 150.585 1.30204C150.585 31.9259 150.585 62.6487 150.585 93.6555C147.5 93.6555 144.442 93.6555 141.059 93.6555C141.059 79.5757 141.059 65.6332 141.059 51.3158C125.689 51.3158 110.633 51.3158 94.9005 51.3158C94.9005 57.2552 94.9005 63.35 94.9005 69.4449C94.9005 76.2761 94.9807 83.1091 94.8337 89.9372C94.8038 91.3221 93.9165 92.6885 93.2613 94.4252C90.9625 94.8287 88.8269 94.8705 86.2341 94.8766Z" fill="#676767"/>
<path d="M328.547 0.146973C331.317 0.523782 333.695 0.950265 336.9 1.525C336.9 2.96796 336.9 4.71368 336.9 6.4594C336.9 26.9091 337.086 47.3617 336.767 67.8064C336.689 72.7866 335.649 78.0187 333.807 82.6393C331.313 88.8957 326.122 92.7729 319.156 94.4989C312.56 94.8273 306.175 94.8737 299.326 94.85C297.874 93.198 296.196 91.6828 296.036 90.0212C295.628 85.7993 295.9 81.5117 295.9 77.2536C299.365 77.5172 302.132 77.8836 304.902 77.9094C313.536 77.9899 316.855 74.7145 316.881 65.9327C316.941 45.8058 316.957 25.6783 316.842 5.55188C316.824 2.37063 317.246 0.284065 321.497 0.889763C324.008 0.638 326.081 0.417329 328.547 0.146973Z" fill="#676767"/>
<path d="M990.252 94.8766C985.622 91.844 981.246 89.1059 977.364 85.7894C971.72 80.9669 969.201 74.0847 969.073 67.1124C968.671 45.2032 969.033 23.28 969.477 1.14994C971.923 0.937462 973.99 0.937325 976.501 0.935524C977.596 2.29166 978.807 3.64582 978.816 5.00779C978.94 24.1354 979.092 43.2668 978.827 62.3916C978.672 73.6227 986.854 85.0885 999.237 86.1633C1016.57 87.6679 1025.85 76.6137 1025.89 62.6784C1025.94 42.3857 1025.91 22.0929 1025.98 1.32999C1028.06 0.885604 1030.07 0.911377 1032.51 0.935463C1033.93 1.79076 1035.77 2.64152 1035.77 3.50561C1035.93 25.2596 1036.64 47.0502 1035.62 68.7572C1034.99 82.0624 1025.05 91.5196 1012.16 94.4973C1004.93 94.8666 997.828 94.8895 990.252 94.8766Z" fill="#676767"/>
<path d="M224.513 0.935547C225.928 1.62729 227.585 2.18331 227.76 3.04154C228.177 5.08802 227.895 7.27717 227.895 9.88824C215.834 9.88824 204.104 9.88824 192.142 9.88824C192.142 20.6345 192.142 30.9011 192.142 41.6649C203.087 41.6649 214.142 41.6649 225.547 41.6649C225.547 44.8676 225.547 47.5904 225.547 50.8091C214.578 50.8091 203.515 50.8091 192.181 50.8091C192.181 62.3429 192.181 73.3929 192.181 84.9324C204.373 84.9324 216.431 84.9324 228.69 84.9324C228.69 88.0216 228.69 90.6267 228.69 93.6896C226.313 93.8152 223.898 93.9427 221.291 94.4288C210.948 94.8286 200.797 94.8698 190.211 94.8764C187.315 94.3864 184.856 93.9312 182.103 93.4216C182.045 92.6401 181.911 91.6772 181.91 90.7142C181.899 62.1065 181.907 33.4989 181.888 4.8912C181.887 2.70071 181.5 0.344909 185.418 0.936126C198.598 0.93499 211.34 0.936111 224.513 0.935547Z" fill="#676767"/>
<path d="M1119.84 38.583C1118.9 39.7797 1117.75 40.3322 1117.15 41.2496C1111.26 50.3123 1102.71 54.0324 1092.19 53.9449C1087.57 53.9066 1082.95 53.9385 1078.04 53.9385C1078.04 67.3302 1078.04 80.2617 1078.04 93.5646C1074.68 93.5646 1071.62 93.5646 1068.23 93.5646C1068.23 62.9971 1068.23 32.293 1068.23 0.937827C1072.41 0.937827 1076.67 0.937828 1081.39 0.935851C1086.6 0.935241 1091.34 0.936622 1096.88 1.07431C1106.76 2.94601 1114.65 6.36619 1118.39 15.7426C1118.46 15.9267 1119.31 15.8016 1119.8 15.8207C1119.82 23.2498 1119.85 30.6789 1119.84 38.583ZM1078.02 10.7263C1078.02 22.0936 1078.02 33.4608 1078.02 44.9385C1082.52 44.9385 1086.33 44.9394 1090.15 44.9383C1104.08 44.9342 1110.06 38.8551 1109.9 24.8865C1109.82 18.3909 1104.94 11.9403 1098.36 11.051C1091.89 10.1749 1085.27 10.347 1078.02 10.7263Z" fill="#676767"/>
<path d="M56.4755 0.935547C59.0822 0.933838 61.2202 0.933838 63.628 0.933838C63.628 3.96333 63.628 6.69849 63.628 9.75197C54.9023 9.75197 46.2968 9.75197 37.2196 9.75197C37.2196 37.7592 37.2196 65.4619 37.2196 93.5506C33.7053 93.5506 30.6481 93.5506 27.119 93.5506C27.119 66.0253 27.119 38.3168 27.119 9.95555C18.088 9.95555 9.50377 9.95555 0.459747 10.0068C3.27826e-07 6.98283 0 3.90753 0 0.937248C19.1143 0.937248 37.5605 0.937248 56.4755 0.935547Z" fill="#676767"/>
<path d="M516.945 18.2218C517.233 17.9651 517.667 17.9537 518.425 17.9404C518.197 18.1148 517.644 18.291 516.945 18.2218Z" fill="#676767"/>
<path d="M891.97 85.449C904.779 88.5633 915.639 85.4947 924.543 74.9683C927.561 79.1623 923.712 81.6097 921.318 82.6727C914.056 85.8976 907.141 91.2963 898.376 88.8821C896.149 88.2687 894.146 86.8445 891.97 85.449Z" fill="#676767"/>
</svg>
