<svg width="883" height="352" viewBox="0 0 883 352" fill="none" xmlns="http://www.w3.org/2000/svg">
<g clip-path="url(#clip0_123_53)">
<path d="M686.983 0.0133057V175.367L684.746 177.215L682.509 179.063L680.365 181.003L678.314 182.943L676.356 184.883L674.399 186.916L672.535 188.948L670.67 190.981V0.0133057H474.634V159.661H458.414V0.0133057H262.378V159.938H246.158V0.0133057H50.1218V182.296L0.0639648 347.579H44.0626L66.1552 274.408H72.494L109.035 347.579H162.169L126.746 274.408H207.1L184.821 347.579H232.828L254.827 274.592H265.454V274.407H280.555H281.767H372.468L351.214 347.394H399.687L420.288 274.407H442.101L442.66 347.394H483.303L530.005 274.407H560.58L544.733 347.394H592.46L608.028 274.407H635.62L635.434 278.565L635.532 282.815L635.719 286.88L636.091 290.945L636.371 292.885L636.65 294.825L637.023 296.765L637.395 298.705L637.861 300.646L638.327 302.493L638.885 304.341L639.444 306.189L640.097 308.037L640.75 309.792L641.496 311.547L642.242 313.21L643.081 314.966L643.921 316.629L644.853 318.199L645.786 319.862L646.811 321.433L647.93 322.911L649.049 324.482L650.26 325.868L651.472 327.346L652.684 328.732L654.082 330.118L655.481 331.411L657.252 332.889L659.023 334.368L660.887 335.753L662.845 337.047L664.802 338.34L666.76 339.541L668.811 340.557L670.955 341.666L673.006 342.589L675.15 343.513L677.293 344.345L679.531 345.177L681.768 345.916L684.005 346.563L686.242 347.209L688.48 347.764L692.954 348.78L697.522 349.519L701.996 350.166L706.471 350.72L710.852 351.09L715.14 351.275L719.335 351.46H723.343L728.75 351.372L734.156 351.285L739.656 351.007L745.156 350.73L750.656 350.268L756.155 349.805L761.655 349.251L767.155 348.604L772.748 347.865L778.341 347.033L783.934 346.109L789.527 345.185L795.12 344.17L800.713 343.061L806.306 341.952L811.993 340.659L828.585 274.416H883.024V0.021853L686.983 0.0133057ZM68.2991 267.571L68.5785 266.555L69.2316 267.571H68.2991ZM239.073 169.269L236.277 178.601L210.176 264.522L209.15 267.571H123.39L116.772 253.528L209.15 159.938H149.771L77.5274 237.083L100.925 159.938H57.1128V6.94252H239.073L239.073 169.269ZM289.69 241.887L288.292 241.974L286.987 242.062L285.589 242.15H284.097H282.14H280.462L278.877 242.237H277.386L265.734 242.15L271.14 222.379L273.657 212.585L279.809 189.581H281.767H283.818L285.775 189.493H287.64H296.682L302.182 189.581L307.215 189.766L309.453 189.854L311.597 190.039L313.647 190.316L315.512 190.593L317.19 190.87L318.774 191.333L320.266 191.795L321.571 192.35L322.689 192.904L323.715 193.644L324.648 194.384L325.393 195.307L325.859 196.047L326.231 196.787L326.604 197.618L326.883 198.542L327.069 199.558L327.168 200.574V201.682V202.883L327.069 204.177L326.982 205.47L326.702 206.949L326.423 208.427L325.583 211.568L324.558 215.079L323.532 218.035L322.414 220.899L321.202 223.579L319.897 226.073L319.244 227.182L318.59 228.29L317.844 229.399L317.005 230.415L316.165 231.431L315.326 232.354L314.394 233.278L313.461 234.11L312.435 234.85L311.41 235.681L310.291 236.328L309.079 237.067L307.867 237.714L306.562 238.268L305.257 238.823L303.859 239.285L302.368 239.84L300.783 240.209L299.105 240.578L297.427 240.948L295.563 241.225L293.698 241.502L291.741 241.687L289.69 241.873L289.69 241.887ZM422.246 267.571L441.355 200.127L442.102 267.571H422.246ZM451.33 159.661H405.839L374.518 267.571H326.232L328.469 266.647L330.706 265.723L332.85 264.8L334.994 263.784L337.045 262.768L339.002 261.567L340.96 260.458L342.824 259.257L344.689 257.964L346.46 256.67L348.138 255.377L349.816 253.899L351.4 252.513L352.892 250.942L354.383 249.464L355.782 247.801L357.18 246.23L358.485 244.475L359.697 242.812L360.909 240.964L362.027 239.116L363.053 237.269L364.079 235.329L365.011 233.296L365.944 231.263L366.783 229.231L367.528 227.106L368.274 224.889L368.833 222.671L369.486 220.454L369.952 218.052L370.418 215.742L371.071 212.047L371.63 208.536L372.002 205.21L372.282 202.069L372.38 198.927L372.282 196.063L372.194 193.199L371.822 190.52L371.449 188.026L370.796 185.531L370.143 183.221L369.21 181.004L368.185 178.879L367.066 176.754L365.761 174.814L364.269 172.966L363.058 171.673L361.846 170.379L360.541 169.271L359.143 168.255L357.651 167.239L356.16 166.315L354.575 165.484L352.99 164.744L351.312 164.004L349.634 163.45L347.863 162.895L346.092 162.341L344.228 161.878L342.363 161.509L340.499 161.14L338.541 160.863L334.533 160.308L330.525 160.031L326.423 159.754L322.228 159.666H313.839H305.542H302.932H298.271H292.492H286.06H279.814H274.501H270.772H269.374V6.94745H451.335L451.33 159.661ZM561.885 267.571H534.573L575.961 202.899L561.885 267.571ZM663.586 162.71L663.487 200.127L661.157 203.361L659.012 206.687L656.869 210.013L654.911 213.339L653.047 216.665L651.182 220.083L649.598 223.409L648.013 226.735L646.521 229.969L645.216 233.295L643.911 236.528L642.793 239.67L641.767 242.811L640.835 245.86L639.995 248.816L639.249 251.772L638.783 253.713L638.317 255.745L637.852 257.685L637.479 259.718L637.107 261.658L636.827 263.598L636.548 265.538L636.361 267.571H609.608L632.446 159.938L555.449 159.85L486.561 267.576H481.527V6.94723H663.581L663.586 162.71ZM768.548 311.64L764.726 312.287L760.811 312.841L756.896 313.396L753.074 313.858L749.252 314.227L745.43 314.505L741.702 314.69H737.973H735.549L733.126 314.602L730.795 314.417L728.465 314.14L726.228 313.771L724.084 313.401L721.94 312.939L719.889 312.384L717.931 311.738L715.974 311.091L714.11 310.26L712.338 309.428L710.567 308.412L708.889 307.396L707.305 306.288L705.813 305.179L704.322 303.886L703.017 302.5L701.712 301.114L700.5 299.543L699.381 297.973L698.355 296.217L697.423 294.462L696.49 292.614L695.744 290.674L695.091 288.549L694.532 286.424L693.973 284.207L693.601 281.897L693.321 279.495L693.135 277L693.036 274.413H777.864L768.548 311.64ZM876.121 267.571H830.258L837.809 237.452H745.897L738.346 267.571H693.881V261.381L694.44 258.794L694.906 256.207L695.465 253.435L696.024 250.664L696.863 247.615L697.702 244.566L698.635 241.517L699.661 238.561L700.779 235.604L701.991 232.648L703.296 229.784L704.601 226.92L706.093 224.056L707.584 221.377L709.169 218.605L710.94 216.018L712.711 213.431L714.482 210.937L716.44 208.535L718.49 206.225L720.634 204.007L722.778 201.975L725.109 199.942L727.439 198.002L729.863 196.247L732.473 194.584L735.083 193.106L737.786 191.72L740.583 190.426L743.473 189.318L746.456 188.394L749.532 187.654L752.701 187.008L755.964 186.545L759.32 186.268L762.769 186.18L765.472 186.268L768.175 186.453L770.879 186.823L773.489 187.377L774.794 187.746L776.006 188.116L777.217 188.485L778.336 189.039L779.455 189.502L780.573 190.148L781.599 190.795L782.625 191.441L783.557 192.273L784.49 193.105L785.329 193.937L786.168 194.952L786.915 195.876L787.568 196.985L788.127 198.186L788.685 199.387L789.151 200.68L789.524 202.066L789.803 203.452L790.083 205.023L790.181 206.593V208.256V210.012L789.995 211.859H844.807L845.646 208.071L846.393 203.729L846.765 201.419L846.951 198.925L847.138 196.43V193.844L847.05 191.164L846.771 188.393L846.491 187.099L846.305 185.713L845.932 184.328L845.56 182.942L845.094 181.463L844.628 180.078L844.069 178.692L843.416 177.306L842.763 175.92L841.924 174.534L841.084 173.148L840.152 171.763L839.033 170.284L837.821 168.899L836.61 167.513L835.305 166.219L833.906 164.926L832.415 163.725L830.923 162.616L829.339 161.508L827.661 160.399L825.983 159.475L824.212 158.551L822.347 157.628L820.483 156.796L818.525 155.964L816.475 155.224L814.424 154.485L812.373 153.838L810.136 153.284L807.992 152.729L805.661 152.175L803.331 151.712L801.001 151.25L798.577 150.881L796.06 150.603L790.933 150.049L785.713 149.587L780.213 149.401L774.62 149.314L770.425 149.401L766.044 149.489L761.476 149.766L756.722 150.136L751.782 150.69L746.748 151.337L741.621 152.168L736.401 153.277L733.791 153.831L731.087 154.478L728.477 155.218L725.774 155.957L723.071 156.789L720.368 157.713L717.664 158.636L715.054 159.652L712.351 160.761L709.648 161.962L707.037 163.163L704.334 164.457L701.724 165.842L699.114 167.321L696.504 168.799L693.894 170.462V6.93386H876.134V267.562L876.121 267.571Z" fill="#676767"/>
</g>
<defs>
<clipPath id="clip0_123_53">
<rect width="883" height="351.534" fill="white"/>
</clipPath>
</defs>
</svg>
