<svg width="2756" height="789" viewBox="0 0 2756 789" fill="none" xmlns="http://www.w3.org/2000/svg">
<path d="M1086.89 359.379C1081.68 364.012 1076.76 368.083 1070.75 372.811C1056.31 383.078 1041.54 389.815 1025.98 394.949C1000.92 403.22 975.07 407.831 949 411.379C942.76 411.774 936.53 412.17 929.89 412.59C928.18 410.337 926.41 408.016 923.87 404.667C914.34 390.977 905.59 378.315 896.66 364.984C892.75 359.023 889.01 353.733 885.18 347.883C883.64 345.294 882.18 343.265 880.47 340.416C879.13 337.606 878.05 335.617 876.51 332.779C879.94 332.982 882.51 333.041 885.06 333.303C894 334.221 902.91 335.567 911.87 336.105C939.71 337.775 967.2 335.799 993.28 325.056C1015.31 315.986 1030.23 300.134 1034.24 276.053C1035.75 266.967 1035.9 257.408 1035.03 248.219C1032.56 222.044 1019.3 203.333 994.14 194.305C986.71 191.636 978.69 189.295 970.9 189.139C939.62 188.516 908.33 188.811 876.35 188.727C875.37 189.475 875.08 190.261 874.59 191.961C874.34 237.858 874.28 282.841 874.27 327.823C874.27 332.801 874.59 337.778 874.61 343.178C874.56 344.771 874.68 345.943 874.59 348.017C874.52 357.612 874.65 366.305 874.57 375.877C874.49 382.171 874.62 387.587 874.55 393.657C874.48 395.207 874.62 396.103 874.55 397.735C874.5 399.982 874.65 401.492 874.6 403.918C874.55 416.889 874.72 428.945 874.67 441.917C874.58 461.557 874.69 480.279 874.58 499.854C874.49 504.805 874.63 508.902 874.52 513.831C874.42 518.109 874.56 521.555 874.7 525.001C874.57 535.059 874.44 545.117 874.3 556.94C874.46 562.804 874.62 566.903 874.79 571.001C874.89 575.896 872.79 578.296 867.64 577.551C866.02 577.317 864.34 577.547 860.93 577.592C835.78 577.744 812.38 577.868 788.98 577.992C788.36 574.206 787.21 570.422 787.2 566.635C787.07 496.705 787.07 426.776 787.04 355.263C786.93 352.787 786.81 351.894 786.7 351.001C786.84 346.012 787.1 341.023 787.1 336.035C787.17 263.041 787.21 190.047 787.39 116.139C845.52 115.227 903.52 114.987 961.51 115.329C993.1 115.515 1024 120.146 1052.37 135.201C1093.59 157.077 1117.03 191.422 1123.24 237.657C1125.61 255.331 1125.15 272.929 1121.98 290.403C1117.22 316.626 1105.74 339.547 1086.89 359.379Z" fill="#E5E5E5"/>
<path d="M572.627 438.234C570.032 442.435 567.438 446.636 564.144 451.919C545.236 482.872 522.373 508.653 495.247 530.707C452.412 565.532 403.975 587.941 349.049 594.713C327.311 597.393 305.232 597.317 283.309 598.496C282.068 599.137 279.922 599.599 279.754 600.452C279.247 603.02 279.478 605.739 279.478 608.399C279.478 664.673 279.486 720.948 279.493 777.22C279.493 780.48 279.493 783.75 279.493 788.12C274.834 788.12 270.945 788.12 266.183 788.31C257.662 788.35 250.015 788.08 242.368 788.08C167.1 788.05 91.8324 788.07 16.5644 788.07C13.2784 788.07 9.9924 788.07 6.4864 788.07C1.5814 773.78 0.382401 759.51 0.0684007 745.32C-1.2936 683.721 17.6504 629.537 59.9644 584.042C88.7584 553.084 124.161 532.744 163.516 518.468C197.862 506.009 233.422 499.565 271.095 495.922C272.846 494.567 273.157 493.509 273.468 492.451C273.653 490.475 273.998 488.5 273.998 486.525C273.983 366.453 273.94 246.381 273.863 124.6C273.72 119.426 273.615 115.961 273.509 112.497C272.917 112.465 272.325 112.434 271.734 112.403C270.787 116.383 269.84 120.362 268.893 124.342C267.427 128.003 265.9 131.64 264.502 135.327C244.019 189.357 206.302 227.8 155.822 254.25C114.298 276.006 69.4814 286.99 23.1934 292.554C16.2804 293.386 9.33741 293.972 0.858409 294.828C0.598409 196.641 0.7564 99.1598 0.7364 1.07579C3.1454 0.792786 5.3524 0.305797 7.5594 0.305797C99.8894 0.297797 192.23 -0.559215 284.545 0.631785C365.286 1.67279 438.5 26.5098 501.435 77.9898C555.25 122.01 588.725 178.506 601.553 247.113C607.879 280.923 607.529 314.69 602.721 349.437C598.869 365.149 594.951 379.987 590.535 396.082C589.118 400.383 588.2 403.427 586.888 406.88C586.194 408.353 585.895 409.417 585.206 411.047C583.646 414.569 582.476 417.524 580.895 420.882C580.147 422.35 579.81 423.415 579.036 425.023C576.608 429.788 574.617 434.011 572.627 438.234Z" fill="#E5E5E5"/>
<path d="M1268.58 287.84C1279.74 269.653 1294.21 255.393 1311.98 245.06C1330.17 234.727 1350.83 229.56 1373.98 229.56V320.7H1351.04C1323.76 320.7 1303.09 327.107 1289.04 339.92C1275.4 352.733 1268.58 375.053 1268.58 406.88V578H1181.78V234.52H1268.58V287.84ZM1584.96 583.58C1551.9 583.58 1522.14 576.347 1495.68 561.88C1469.23 547 1448.36 526.127 1433.06 499.26C1418.18 472.393 1410.74 441.393 1410.74 406.26C1410.74 371.127 1418.39 340.127 1433.68 313.26C1449.39 286.393 1470.68 265.727 1497.54 251.26C1524.41 236.38 1554.38 228.94 1587.44 228.94C1620.51 228.94 1650.48 236.38 1677.34 251.26C1704.21 265.727 1725.29 286.393 1740.58 313.26C1756.29 340.127 1764.14 371.127 1764.14 406.26C1764.14 441.393 1756.08 472.393 1739.96 499.26C1724.26 526.127 1702.76 547 1675.48 561.88C1648.62 576.347 1618.44 583.58 1584.96 583.58ZM1584.96 507.94C1600.67 507.94 1615.34 504.22 1628.98 496.78C1643.04 488.927 1654.2 477.353 1662.46 462.06C1670.73 446.767 1674.86 428.167 1674.86 406.26C1674.86 373.607 1666.18 348.6 1648.82 331.24C1631.88 313.467 1611 304.58 1586.2 304.58C1561.4 304.58 1540.53 313.467 1523.58 331.24C1507.05 348.6 1498.78 373.607 1498.78 406.26C1498.78 438.913 1506.84 464.127 1522.96 481.9C1539.5 499.26 1560.16 507.94 1584.96 507.94ZM1914.62 284.12C1925.78 268.413 1941.07 255.393 1960.5 245.06C1980.34 234.313 2002.86 228.94 2028.08 228.94C2057.42 228.94 2083.88 236.173 2107.44 250.64C2131.41 265.107 2150.22 285.773 2163.86 312.64C2177.91 339.093 2184.94 369.887 2184.94 405.02C2184.94 440.153 2177.91 471.36 2163.86 498.64C2150.22 525.507 2131.41 546.38 2107.44 561.26C2083.88 576.14 2057.42 583.58 2028.08 583.58C2002.86 583.58 1980.54 578.413 1961.12 568.08C1942.1 557.747 1926.6 544.727 1914.62 529.02V741.68H1827.82V234.52H1914.62V284.12ZM2096.28 405.02C2096.28 384.353 2091.94 366.58 2083.26 351.7C2074.99 336.407 2063.83 324.833 2049.78 316.98C2036.14 309.127 2021.26 305.2 2005.14 305.2C1989.43 305.2 1974.55 309.333 1960.5 317.6C1946.86 325.453 1935.7 337.027 1927.02 352.32C1918.75 367.613 1914.62 385.593 1914.62 406.26C1914.62 426.927 1918.75 444.907 1927.02 460.2C1935.7 475.493 1946.86 487.273 1960.5 495.54C1974.55 503.393 1989.43 507.32 2005.14 507.32C2021.26 507.32 2036.14 503.187 2049.78 494.92C2063.83 486.653 2074.99 474.873 2083.26 459.58C2091.94 444.287 2096.28 426.1 2096.28 405.02ZM2292.03 193.6C2276.74 193.6 2263.92 188.847 2253.59 179.34C2243.67 169.42 2238.71 157.227 2238.71 142.76C2238.71 128.293 2243.67 116.307 2253.59 106.8C2263.92 96.8798 2276.74 91.9198 2292.03 91.9198C2307.32 91.9198 2319.93 96.8798 2329.85 106.8C2340.18 116.307 2345.35 128.293 2345.35 142.76C2345.35 157.227 2340.18 169.42 2329.85 179.34C2319.93 188.847 2307.32 193.6 2292.03 193.6ZM2334.81 234.52V578H2248.01V234.52H2334.81ZM2398.25 405.02C2398.25 370.3 2405.07 339.507 2418.71 312.64C2432.76 285.773 2451.57 265.107 2475.13 250.64C2499.1 236.173 2525.76 228.94 2555.11 228.94C2580.74 228.94 2603.06 234.107 2622.07 244.44C2641.5 254.773 2657 267.793 2668.57 283.5V234.52H2755.99V578H2668.57V527.78C2657.41 543.9 2641.91 557.333 2622.07 568.08C2602.64 578.413 2580.12 583.58 2554.49 583.58C2525.56 583.58 2499.1 576.14 2475.13 561.26C2451.57 546.38 2432.76 525.507 2418.71 498.64C2405.07 471.36 2398.25 440.153 2398.25 405.02ZM2668.57 406.26C2668.57 385.18 2664.44 367.2 2656.17 352.32C2647.9 337.027 2636.74 325.453 2622.69 317.6C2608.64 309.333 2593.55 305.2 2577.43 305.2C2561.31 305.2 2546.43 309.127 2532.79 316.98C2519.15 324.833 2507.99 336.407 2499.31 351.7C2491.04 366.58 2486.91 384.353 2486.91 405.02C2486.91 425.687 2491.04 443.873 2499.31 459.58C2507.99 474.873 2519.15 486.653 2532.79 494.92C2546.84 503.187 2561.72 507.32 2577.43 507.32C2593.55 507.32 2608.64 503.393 2622.69 495.54C2636.74 487.273 2647.9 475.7 2656.17 460.82C2664.44 445.527 2668.57 427.34 2668.57 406.26Z" fill="#E5E5E5"/>
</svg>
