<svg width="906" height="143" viewBox="0 0 906 143" fill="none" xmlns="http://www.w3.org/2000/svg">
<path d="M52.38 107.135L9.11 129.135C6.67172 130.46 4.57771 132.338 2.99573 134.618C1.41375 136.898 0.387772 139.517 0 142.265C13.5421 141.751 26.6562 137.383 37.8018 129.674C48.9473 121.965 57.6613 111.235 62.92 98.7451C59.9497 102.163 56.3772 105.007 52.38 107.135Z" fill="#676767"/>
<path d="M9.17 13.275L52.35 35.275C56.3584 37.4079 59.9438 40.2545 62.93 43.675C57.6735 31.1782 48.9598 20.4411 37.8125 12.725C26.6652 5.00885 13.5474 0.634215 0 0.11499C0.3928 2.87287 1.42706 5.50016 3.01966 7.78573C4.61227 10.0713 6.71881 11.9514 9.17 13.275Z" fill="#676767"/>
<path d="M75.23 0.0449975H28.71C42.6385 5.36491 54.6989 14.6567 63.3952 26.7679C72.0915 38.8791 77.041 53.2767 77.63 68.175C77.7 69.175 77.75 70.175 77.75 71.175C77.75 72.175 77.7 73.175 77.62 74.235C77.0328 89.126 72.087 103.517 63.396 115.623C54.705 127.729 42.6513 137.017 28.73 142.335H75.23C84.6465 142.447 93.9915 140.688 102.724 137.162C111.456 133.636 119.401 128.412 126.099 121.792C132.798 115.173 138.116 107.29 141.745 98.6003C145.375 89.9107 147.244 80.5872 147.244 71.17C147.244 61.7528 145.375 52.4293 141.745 43.7397C138.116 35.0501 132.798 27.1672 126.099 20.5478C119.401 13.9285 111.456 8.70427 102.724 5.17796C93.9915 1.65166 84.6465 -0.106625 75.23 0.0050004V0.0449975Z" fill="#676767"/>
<path d="M186.2 108.845C183.78 108.845 182.57 107.638 182.57 105.225V54.335C182.57 51.8484 183.78 50.6017 186.2 50.595C188.46 50.595 189.59 51.8417 189.59 54.335V61.675C191.195 58.1301 193.88 55.1831 197.26 53.255C200.855 51.2657 204.901 50.2327 209.01 50.255C209.835 50.1453 210.671 50.3526 211.35 50.835C211.673 51.1022 211.928 51.4435 212.091 51.83C212.255 52.2164 212.323 52.6367 212.29 53.055C212.356 55.2417 211.223 56.4517 208.89 56.685L207.25 56.805C201.716 57.265 197.43 59.0783 194.39 62.245C191.39 65.395 189.82 69.635 189.82 74.935V105.235C189.82 107.675 188.63 108.845 186.2 108.845Z" fill="#676767"/>
<path d="M243.63 109.085C234.897 109.085 228.017 106.492 222.99 101.305C217.964 96.1183 215.447 89.0016 215.44 79.955C215.326 74.6119 216.488 69.3188 218.83 64.515C220.946 60.1724 224.265 56.5291 228.392 54.0188C232.52 51.5084 237.281 50.2367 242.11 50.355C249.684 50.355 255.57 52.8116 259.77 57.725C263.97 62.6383 266.077 69.385 266.09 77.965C266.09 80.1516 265 81.245 262.82 81.245H222.46C222.694 88.2583 224.624 93.6583 228.25 97.445C231.877 101.232 236.927 103.122 243.4 103.115C246.224 103.123 249.036 102.749 251.76 102.005C254.624 101.185 257.305 99.8277 259.66 98.005C261.06 97.075 262.27 96.855 263.28 97.365C263.758 97.5829 264.167 97.9255 264.467 98.3566C264.766 98.7877 264.943 99.2915 264.98 99.815C265.1 100.955 264.49 101.985 263.17 102.925C260.48 105.044 257.398 106.611 254.1 107.535C250.704 108.558 247.177 109.08 243.63 109.085ZM242.23 56.085C236.304 56.085 231.684 57.935 228.37 61.635C225.057 65.335 223.144 70.115 222.63 75.975H259.63C259.47 69.735 257.91 64.8616 254.95 61.355C251.99 57.8483 247.75 56.095 242.23 56.095V56.085Z" fill="#676767"/>
<path d="M299.08 109.085C292.76 109.085 288.023 107.368 284.87 103.935C281.717 100.502 280.137 95.5884 280.13 89.195V57.145H271.47C269.21 57.145 268.08 56.1684 268.08 54.215C268.08 52.2617 269.21 51.3284 271.47 51.415H280.13V36.795C280.13 34.375 281.34 33.165 283.76 33.165C286.1 33.165 287.26 34.375 287.26 36.795V51.415H303.06C305.24 51.415 306.33 52.3484 306.33 54.215C306.33 56.0817 305.24 57.0584 303.06 57.145H287.26V88.255C287.26 93.015 288.237 96.6417 290.19 99.135C292.143 101.628 295.38 102.878 299.9 102.885C301.207 102.92 302.511 102.741 303.76 102.355C304.622 102.032 305.53 101.853 306.45 101.825C307.85 101.825 308.55 102.825 308.55 104.755C308.551 105.382 308.411 106 308.14 106.565C307.999 106.863 307.796 107.126 307.544 107.339C307.292 107.551 306.997 107.707 306.68 107.795C305.534 108.177 304.361 108.471 303.17 108.675C301.822 108.934 300.453 109.071 299.08 109.085Z" fill="#676767"/>
<path d="M331.48 109.085C327.94 109.143 324.435 108.38 321.24 106.855C318.372 105.488 315.913 103.391 314.11 100.775C312.363 98.228 311.444 95.2036 311.48 92.115C311.48 87.9083 312.533 84.615 314.64 82.235C316.747 79.855 320.293 78.1583 325.28 77.145C330.273 76.1383 337.137 75.6317 345.87 75.625H349.49V71.415C349.49 66.195 348.437 62.3917 346.33 60.005C344.223 57.6183 340.873 56.4317 336.28 56.445C333.354 56.4395 330.44 56.8332 327.62 57.615C324.555 58.5001 321.61 59.7561 318.85 61.355C317.44 62.135 316.33 62.155 315.51 61.415C315.107 61.0466 314.792 60.5916 314.589 60.0842C314.386 59.5767 314.301 59.03 314.34 58.485C314.361 57.889 314.554 57.3119 314.897 56.8237C315.24 56.3355 315.717 55.9573 316.27 55.735C319.403 53.9835 322.747 52.6393 326.22 51.735C329.462 50.8601 332.802 50.4064 336.16 50.385C343.02 50.385 348.107 52.1417 351.42 55.655C354.733 59.1683 356.4 64.5483 356.42 71.795V105.255C356.42 107.668 355.33 108.875 353.15 108.875C350.81 108.875 349.64 107.668 349.64 105.255V97.995C348.18 101.389 345.707 104.25 342.56 106.185C339.215 108.181 335.373 109.186 331.48 109.085ZM332.42 103.345C335.531 103.408 338.595 102.579 341.25 100.955C343.8 99.3214 345.87 97.0405 347.25 94.345C348.768 91.376 349.53 88.0788 349.47 84.745V80.885H345.97C340.474 80.7934 334.979 81.1076 329.53 81.825C325.59 82.4517 322.84 83.545 321.28 85.105C320.475 85.9625 319.854 86.9748 319.453 88.0803C319.053 89.1857 318.882 90.3612 318.95 91.535C318.903 93.1409 319.207 94.7376 319.843 96.213C320.479 97.6884 321.43 99.0066 322.63 100.075C325.023 102.255 328.287 103.345 332.42 103.345Z" fill="#676767"/>
<path d="M375.69 36.795C372.256 36.795 370.543 35.155 370.55 31.875C370.55 28.675 372.26 27.085 375.69 27.085C379.12 27.085 380.84 28.675 380.84 31.875C380.84 35.075 379.12 36.795 375.69 36.795ZM375.69 108.615C373.27 108.615 372.07 107.325 372.07 104.755V54.675C372.07 52.185 373.27 50.935 375.69 50.935C378.11 50.935 379.2 52.185 379.2 54.675V104.745C379.2 107.325 378.03 108.615 375.69 108.615Z" fill="#676767"/>
<path d="M411.49 109.085C406.257 109.085 402.22 107.465 399.38 104.225C396.54 100.985 395.117 96.3184 395.11 90.2251V28.6051C395.11 26.1851 396.317 24.9751 398.73 24.9751C401.143 24.9751 402.313 26.1851 402.24 28.6051V89.4251C402.24 98.3918 405.75 102.878 412.77 102.885C413.415 102.889 414.06 102.849 414.7 102.765C415.263 102.687 415.831 102.647 416.4 102.645C416.677 102.587 416.964 102.594 417.238 102.665C417.512 102.736 417.766 102.87 417.98 103.055C418.41 103.692 418.594 104.463 418.5 105.225C418.5 107.225 417.34 108.455 415 108.845C414.426 109.003 413.835 109.084 413.24 109.085H411.49Z" fill="#676767"/>
<path d="M446.22 109.195C441.59 109.307 437.025 108.085 433.07 105.675C429.193 103.198 426.124 99.6425 424.24 95.445C422.021 90.4831 420.938 85.0886 421.07 79.6549C420.934 74.237 422.017 68.8579 424.24 63.9149C426.138 59.7421 429.179 56.1919 433.01 53.6749C436.962 51.1958 441.556 49.9335 446.22 50.045C450.222 49.9757 454.173 50.9437 457.69 52.8549C460.897 54.5787 463.507 57.2313 465.18 60.465V30.825C465.18 26.825 467.12 24.825 471.03 24.825C474.94 24.825 477.03 26.825 477.03 30.825V102.995C477.03 106.995 475.08 108.995 471.18 108.995C467.28 108.995 465.33 106.995 465.33 102.995V98.555C463.609 101.833 460.967 104.538 457.73 106.335C454.213 108.287 450.242 109.274 446.22 109.195ZM449.27 100.075C451.492 100.148 453.7 99.7107 455.727 98.7972C457.753 97.8836 459.543 96.518 460.96 94.805C463.96 91.305 465.41 86.2249 465.41 79.6049C465.41 72.9849 463.93 67.9249 460.96 64.4549C459.472 62.8148 457.658 61.5041 455.634 60.6072C453.609 59.7103 451.419 59.2469 449.205 59.2469C446.991 59.2469 444.801 59.7103 442.776 60.6072C440.752 61.5041 438.938 62.8148 437.45 64.4549C434.49 67.9216 433.01 72.9716 433.01 79.6049C433.01 86.2249 434.49 91.305 437.45 94.805C438.887 96.5276 440.699 97.8982 442.748 98.8117C444.797 99.7252 447.028 100.157 449.27 100.075Z" fill="#676767"/>
<path d="M496.52 38.3149C494.55 38.4369 492.606 37.8081 491.08 36.5549C490.426 35.9284 489.915 35.168 489.582 34.3258C489.249 33.4835 489.102 32.5793 489.15 31.6749C489.15 27.2216 491.607 24.9982 496.52 25.0049C501.434 25.0116 503.89 27.2349 503.89 31.6749C503.89 36.0949 501.434 38.3082 496.52 38.3149ZM496.52 108.845C492.62 108.845 490.67 106.702 490.67 102.415V56.7949C490.67 52.5816 492.62 50.4749 496.52 50.4749C500.42 50.4749 502.42 52.5816 502.52 56.7949V102.415C502.5 106.708 500.5 108.852 496.52 108.845Z" fill="#676767"/>
<path d="M522.14 108.965C518.14 108.965 516.14 106.965 516.14 102.965V56.2051C516.14 52.2051 518.053 50.2051 521.88 50.2051C525.69 50.2051 527.61 52.2051 527.61 56.2051V61.2051C529.051 57.8331 531.527 55.0068 534.68 53.1351C538.211 51.157 542.157 50.0368 546.2 49.8651C549.087 49.6251 550.65 51.1851 550.89 54.5451C551.19 57.9751 549.52 59.8451 545.89 60.1551L543.67 60.3951C533.297 61.4084 528.113 66.7417 528.12 76.3951V102.945C528.113 106.958 526.12 108.965 522.14 108.965Z" fill="#676767"/>
<path d="M582.85 109.195C573.516 109.195 566.147 106.565 560.74 101.305C555.333 96.045 552.63 88.8517 552.63 79.725C552.52 74.3426 553.746 69.017 556.2 64.225C558.442 59.8747 561.867 56.2456 566.08 53.755C570.481 51.2054 575.495 49.9086 580.58 50.005C588.46 50.005 594.66 52.5217 599.18 57.555C603.7 62.5883 605.963 69.5083 605.97 78.315C605.97 80.965 604.4 82.315 601.29 82.315H564.13C564.99 94.1617 571.267 100.088 582.96 100.095C585.442 100.075 587.913 99.7801 590.33 99.215C592.998 98.5963 595.535 97.5058 597.82 95.995C599.07 95.1439 600.592 94.7875 602.09 94.995C602.653 95.1018 603.184 95.3381 603.64 95.6851C604.097 96.0322 604.466 96.4807 604.72 96.995C605.27 98.0826 605.374 99.3419 605.01 100.505C604.554 101.927 603.57 103.119 602.26 103.835C599.42 105.699 596.276 107.053 592.97 107.835C589.665 108.701 586.266 109.157 582.85 109.195ZM581.09 58.315C576.177 58.315 572.28 59.835 569.4 62.875C566.52 65.915 564.763 69.9683 564.13 75.035H596.06C595.833 69.7017 594.43 65.5883 591.85 62.695C589.27 59.8017 585.683 58.3417 581.09 58.315Z" fill="#676767"/>
<path d="M641.1 109.195C635.813 109.333 630.584 108.063 625.95 105.515C621.717 103.076 618.284 99.4595 616.07 95.1049C613.631 90.1846 612.426 84.7448 612.56 79.2549C612.56 70.2015 615.133 63.0649 620.28 57.8449C625.426 52.6249 632.366 50.0115 641.1 50.0049C644.008 50.0304 646.901 50.4441 649.7 51.2349C652.708 52.044 655.542 53.3999 658.06 55.2349C658.622 55.5406 659.108 55.969 659.482 56.4884C659.856 57.0077 660.108 57.6047 660.22 58.2349C660.434 59.4152 660.225 60.6333 659.63 61.6749C659.1 62.6821 658.194 63.4401 657.11 63.7849C656.476 63.9432 655.815 63.9671 655.171 63.8552C654.527 63.7432 653.913 63.4979 653.37 63.1349C651.629 61.8754 649.693 60.9093 647.64 60.2749C645.82 59.7064 643.926 59.4099 642.02 59.3949C636.493 59.3949 632.226 61.1282 629.22 64.5949C626.213 68.0615 624.71 72.9949 624.71 79.3949C624.71 85.7949 626.213 90.7949 629.22 94.3949C632.226 97.9949 636.493 99.8082 642.02 99.8349C646.086 99.8285 650.051 98.564 653.37 96.2149C653.902 95.852 654.508 95.6109 655.144 95.5089C655.78 95.407 656.431 95.4465 657.05 95.6249C657.565 95.8113 658.038 96.0994 658.44 96.4722C658.842 96.845 659.165 97.2948 659.39 97.7949C659.902 98.8465 660.066 100.034 659.86 101.185C659.748 101.815 659.496 102.412 659.122 102.931C658.748 103.451 658.262 103.879 657.7 104.185C655.247 105.954 652.492 107.262 649.57 108.045C646.809 108.796 643.961 109.182 641.1 109.195Z" fill="#676767"/>
<path d="M692.1 109.195C684.92 109.195 679.587 107.362 676.1 103.695C672.613 100.028 670.86 94.7283 670.84 87.7949V60.1849H666.63C663.35 60.1849 661.71 58.6649 661.71 55.6249C661.71 52.6249 663.35 51.0549 666.63 51.0549H670.81V39.0549C670.81 35.0549 672.81 33.0549 676.81 33.0549C680.81 33.0549 682.76 35.0549 682.66 39.0549V51.0549H696.35C699.62 51.0549 701.26 52.5849 701.26 55.6249C701.26 58.6649 699.62 60.1849 696.35 60.1849H682.63V86.8549C682.63 90.9816 683.51 94.1016 685.27 96.2149C687.02 98.3149 689.88 99.3749 693.86 99.3749C695.083 99.3953 696.303 99.2575 697.49 98.9649C698.37 98.7137 699.27 98.5364 700.18 98.4349C700.574 98.4217 700.967 98.4934 701.331 98.6453C701.695 98.7971 702.022 99.0255 702.29 99.3149C702.944 100.295 703.231 101.474 703.1 102.645C703.123 103.788 702.905 104.922 702.46 105.975C702.257 106.452 701.945 106.876 701.549 107.211C701.153 107.546 700.684 107.784 700.18 107.905C698.958 108.376 697.681 108.692 696.38 108.845C694.964 109.067 693.533 109.184 692.1 109.195Z" fill="#676767"/>
<path d="M715.96 38.3149C713.989 38.4369 712.045 37.8081 710.52 36.5549C709.873 35.9248 709.369 35.1628 709.043 34.3208C708.717 33.4787 708.576 32.5763 708.63 31.6749C708.63 27.2216 711.086 24.9982 716 25.0049C720.913 25.0116 723.356 27.2349 723.33 31.6749C723.33 36.0949 720.873 38.3082 715.96 38.3149ZM715.96 108.845C712.06 108.845 710.11 106.702 710.11 102.415V56.7949C710.11 52.5816 712.06 50.4749 715.96 50.4749C719.86 50.4749 721.86 52.5816 721.96 56.7949V102.415C721.94 106.708 719.94 108.852 715.96 108.845Z" fill="#676767"/>
<path d="M758.89 109.195C753.657 109.337 748.48 108.084 743.89 105.565C739.704 103.182 736.308 99.626 734.12 95.335C731.712 90.449 730.528 85.0505 730.67 79.605C730.528 74.1563 731.712 68.7546 734.12 63.865C736.325 59.5868 739.731 56.0452 743.92 53.675C748.51 51.1559 753.687 49.903 758.92 50.045C764.058 49.9349 769.133 51.1874 773.63 53.675C777.817 56.0725 781.226 59.6237 783.45 63.905C785.898 68.7829 787.103 74.1895 786.96 79.645C787.104 85.0974 785.898 90.5008 783.45 95.375C781.222 99.6436 777.814 103.181 773.63 105.565C769.125 108.058 764.038 109.31 758.89 109.195ZM758.89 100.075C761.113 100.146 763.323 99.7088 765.351 98.7954C767.378 97.882 769.171 96.5171 770.59 94.805C773.59 91.305 775.03 86.225 775.03 79.605C775.03 72.985 773.55 67.925 770.59 64.455C769.102 62.8147 767.286 61.5038 765.261 60.6068C763.236 59.7098 761.045 59.2463 758.83 59.2463C756.615 59.2463 754.425 59.7098 752.399 60.6068C750.374 61.5038 748.559 62.8147 747.07 64.455C744.11 67.935 742.63 72.985 742.63 79.605C742.63 86.225 744.11 91.305 747.07 94.805C748.507 96.5277 750.32 97.8983 752.369 98.8118C754.418 99.7253 756.648 100.157 758.89 100.075Z" fill="#676767"/>
<path d="M803.1 108.965C799.2 108.965 797.25 106.965 797.25 102.965V56.205C797.25 52.205 799.163 50.205 802.99 50.205C806.8 50.205 808.72 52.205 808.72 56.205V60.535C810.568 57.1998 813.348 54.4754 816.72 52.695C820.243 50.8689 824.163 49.9447 828.13 50.005C841.623 50.005 848.367 57.6483 848.36 72.935V102.995C848.36 106.995 846.41 108.995 842.51 108.995C838.61 108.995 836.61 106.995 836.51 102.995V73.675C836.51 68.7616 835.557 65.175 833.65 62.915C831.743 60.655 828.76 59.525 824.7 59.525C819.95 59.525 816.14 61.025 813.3 64.025C810.46 67.025 809.03 71.025 809.03 75.905V103.035C809.057 106.988 807.08 108.965 803.1 108.965Z" fill="#676767"/>
<path d="M881.7 109.195C878.122 109.179 874.556 108.786 871.06 108.025C867.533 107.299 864.166 105.944 861.12 104.025C860.534 103.73 860.014 103.319 859.591 102.817C859.168 102.315 858.852 101.733 858.66 101.105C858.345 100.019 858.427 98.8565 858.89 97.825C859.343 96.8341 860.164 96.0591 861.18 95.665C861.766 95.4594 862.39 95.3894 863.007 95.4605C863.624 95.5315 864.216 95.7416 864.74 96.075C867.509 97.605 870.459 98.7841 873.52 99.585C876.235 100.257 879.023 100.593 881.82 100.585C885.95 100.585 889.08 99.845 891.18 98.365C892.172 97.7146 892.982 96.8227 893.535 95.7732C894.088 94.7237 894.365 93.5509 894.34 92.365C894.385 91.4662 894.218 90.5694 893.851 89.7475C893.484 88.9256 892.929 88.2019 892.23 87.635C890.35 86.2967 888.194 85.3979 885.92 85.005L874.8 82.775C864.98 80.775 860.07 75.7083 860.07 67.575C859.999 65.0662 860.549 62.5787 861.671 60.3335C862.792 58.0883 864.451 56.1549 866.5 54.705C870.787 51.505 876.4 49.905 883.34 49.905C889.767 49.7356 896.092 51.5324 901.47 55.055C902.02 55.353 902.502 55.762 902.886 56.256C903.27 56.75 903.547 57.3183 903.7 57.925C903.928 58.9921 903.763 60.1057 903.236 61.061C902.709 62.0163 901.854 62.7493 900.83 63.125C900.216 63.3073 899.571 63.3596 898.935 63.2787C898.3 63.1978 897.689 62.9854 897.14 62.655C894.952 61.3196 892.599 60.2773 890.14 59.555C887.933 58.9111 885.648 58.5746 883.35 58.555C879.297 58.555 876.217 59.315 874.11 60.835C873.112 61.5123 872.299 62.4294 871.747 63.5021C871.195 64.5748 870.921 65.7689 870.95 66.975C870.95 70.875 873.523 73.3717 878.67 74.465L889.79 76.685C894.85 77.705 898.69 79.4217 901.31 81.835C902.629 83.095 903.662 84.624 904.339 86.3184C905.015 88.0128 905.319 89.8328 905.23 91.655C905.321 94.1585 904.779 96.6444 903.655 98.8833C902.531 101.122 900.862 103.042 898.8 104.465C894.507 107.618 888.807 109.195 881.7 109.195Z" fill="#676767"/>
</svg>
