<svg width="1099" height="180" viewBox="0 0 1099 180" fill="none" xmlns="http://www.w3.org/2000/svg">
<g clip-path="url(#clip0_123_125)">
<path d="M115.642 0H37.4687C27.4623 0 18.0429 3.97611 10.9719 11.1596C3.90082 18.3564 0 27.9123 0 38.0779V49.7411C0 65.2745 9.61506 78.886 25.7271 86.1623L32.1589 88.8395V50.311C32.1328 50.1122 32.1198 49.9267 32.1198 49.7279V38.0646C32.1198 36.0898 33.1113 34.8042 33.6984 34.2078C34.2855 33.6114 35.5509 32.6041 37.4818 32.6041H115.655C117.599 32.6041 118.864 33.5981 119.451 34.2078C120.038 34.8042 121.017 36.0898 121.017 38.0514V63.6443H153.123V38.0646C153.123 27.899 149.223 18.3299 142.152 11.1464C135.054 3.96286 125.648 0 115.642 0Z" fill="#676767"/>
<path d="M37.4818 179.451H115.655C125.661 179.451 135.081 175.475 142.152 168.291C149.223 161.094 153.123 151.539 153.123 141.373V129.71C153.123 114.176 143.508 100.565 127.396 93.2886L120.965 90.6113V129.14C120.991 129.339 121.004 129.524 121.004 129.723V141.386C121.004 143.361 120.012 144.647 119.425 145.243C118.838 145.839 117.572 146.847 115.642 146.847H37.4687C35.5248 146.847 34.2594 145.853 33.6723 145.243C33.0852 144.647 32.1067 143.361 32.1067 141.4V115.807H0V141.386C0 151.552 3.90082 161.121 10.9719 168.305C18.069 175.488 27.4753 179.451 37.4818 179.451Z" fill="#676767"/>
<path d="M62.752 103.736C73.9717 115.134 76.5549 129.567 76.5549 129.567C76.5549 129.567 78.2378 120.276 84.6957 110.721C86.2874 108.361 88.153 105.989 90.3708 103.736C101.591 92.3376 115.798 89.7001 115.798 89.7001C115.798 89.7001 105.074 87.7121 94.8848 79.7069C93.3584 78.5008 91.832 77.1754 90.3578 75.6777C79.138 64.2795 76.5418 49.833 76.5418 49.833C76.5418 49.833 74.885 59.1239 68.4271 68.7063C66.8355 71.0654 64.9568 73.4379 62.7389 75.691C51.5062 87.0892 37.2988 89.7134 37.2988 89.7134C37.2988 89.7134 48.0359 91.7015 58.225 99.7067C59.7514 100.926 61.2778 102.251 62.752 103.749V103.736Z" fill="#676767"/>
<path d="M288.123 80.2138H288.107L247.472 77.1109C235.258 76.1973 230.523 73.6404 230.523 63.5914C230.523 52.8178 235.442 49.5311 249.48 49.5311H282.463C294.119 49.5311 299.038 53.5476 300.137 64.1479C300.142 64.2319 300.158 64.3107 300.168 64.3947H300.158V68.7524H307.295V68.7209H318.363V68.7524H325.499V64.3947C325.499 64.2582 325.499 64.1217 325.489 63.9747C324.222 38.2115 311.278 25.2485 282.489 25.2485H249.149C217.448 25.2485 205.607 38.768 205.607 63.4339C205.607 88.0997 216.723 96.6892 244.787 98.8733L285.422 101.976C297.635 102.89 302.37 105.636 302.37 115.869C302.37 126.101 297.451 129.929 283.598 129.929H247.877C236.036 129.929 231.117 125.912 230.019 115.312C230.019 115.238 229.998 115.17 229.993 115.097H230.003V110.739H204.851V115.097C204.851 115.223 204.851 115.349 204.861 115.485C206.133 141.248 218.888 154.211 247.861 154.211H283.75C315.635 154.211 327.481 140.692 327.481 116.026C327.481 91.3602 315.824 82.4137 288.128 80.2138H288.123Z" fill="#676767"/>
<path d="M438.691 78.1965H370.525V25.2214H345.528V154.193H370.525V100.675H438.691V154.193H463.857V25.2214H438.691V78.1965Z" fill="#676767"/>
<path d="M587.757 110.721C587.757 126.427 582.356 129.899 570.315 129.899H529.858C517.804 129.899 512.233 126.427 512.233 110.721V25.2214H487.236V109.807C487.236 137.03 500.009 154.193 529.858 154.193H570.315C599.982 154.193 612.937 137.016 612.937 109.807V25.2214H587.757V110.721Z" fill="#676767"/>
<path d="M636.315 154.193H661.129V100.118H713.992V77.6531H661.129V49.5155H740.789V25.2214H636.315V154.193Z" fill="#676767"/>
<path d="M755.716 154.193H780.53V100.118H833.406V77.6531H780.53V49.5155H860.203V25.2214H755.716V154.193Z" fill="#676767"/>
<path d="M900.108 25.2214H875.112V154.193H978.164V129.899H900.108V25.2214Z" fill="#676767"/>
<path d="M1099 49.5155V25.2214H991.643V154.193H1099V129.899H1016.46V100.118H1071.34V77.6531H1016.46V49.5155H1099Z" fill="#676767"/>
</g>
<defs>
<clipPath id="clip0_123_125">
<rect width="1099" height="179.429" fill="white"/>
</clipPath>
</defs>
</svg>
