<svg width="1966" height="610" viewBox="0 0 1966 610" fill="none" xmlns="http://www.w3.org/2000/svg">
<g clip-path="url(#clip0_106_446)">
<path d="M852.418 261.074C837.712 263.766 823.006 266.462 808.297 269.136C807.444 269.291 806.557 269.26 805.336 268.545C804.181 264.766 803.376 261.758 802.57 258.751C802.108 257.195 801.645 255.639 800.942 253.401C799.794 250.756 798.888 248.795 797.981 246.834C797.339 245.428 796.697 244.022 795.725 242.092C794.83 240.776 794.264 239.984 793.697 239.191C793.04 238.155 792.383 237.12 791.308 235.557C787.654 231.71 784.419 228.389 781.183 225.068C779.956 223.979 778.729 222.891 776.918 221.407C771.806 218.571 767.276 216.132 762.747 213.692C760.268 212.632 757.789 211.571 754.585 210.291C751.87 209.562 749.879 209.052 747.888 208.543C743.443 207.629 738.999 206.715 733.817 205.689C732.181 205.52 731.283 205.463 730.385 205.405C722.438 205.358 714.492 205.312 705.81 205.333C704.519 205.578 703.964 205.756 703.409 205.933C700.012 206.348 696.615 206.763 692.404 207.321C688.335 208.465 685.08 209.466 681.825 210.466C678.374 211.623 674.923 212.78 670.854 214.267C666.517 217.036 662.797 219.475 659.077 221.913C657.884 222.76 656.69 223.606 655.009 224.914C649.181 230.97 644.422 236.908 643.043 244.839C642.624 246.602 642.205 248.364 641.665 250.886C641.68 254.503 641.818 257.361 641.955 260.22C642.322 262.469 642.689 264.717 643.277 267.748C649.565 284.563 662.308 293.146 677.496 299.002C687.66 302.507 697.824 306.012 708.713 309.726C711.395 310.445 713.353 310.955 715.311 311.464C717.915 312.239 720.519 313.013 723.886 313.965C730.166 315.546 735.684 316.95 741.201 318.354C742.686 318.867 744.172 319.38 746.382 320.115C751.971 321.514 756.836 322.691 761.702 323.868C763.545 324.501 765.389 325.135 767.928 325.934C769.92 326.364 771.217 326.629 772.514 326.894C773.268 327.211 774.022 327.527 775.497 328.005C780.019 329.216 783.821 330.267 787.622 331.317C788.903 331.835 790.185 332.353 792.133 333.103C795.395 334.056 797.991 334.777 800.587 335.497C801.301 335.824 802.014 336.152 803.392 336.7C806.856 337.903 809.657 338.885 812.458 339.867C814.006 340.595 815.554 341.322 817.727 342.325C823.928 345.046 829.505 347.491 835.082 349.937C836.546 350.803 838.01 351.67 840.05 352.84C843.093 354.5 845.558 355.856 848.024 357.211C848.024 357.211 848.058 357.116 848.197 357.465C850.006 358.774 851.676 359.734 853.346 360.695C853.409 361.082 853.631 361.321 854.441 361.742C857.318 363.768 859.767 365.463 862.216 367.159C863.341 368.167 864.466 369.175 866.073 370.616C867.965 372.264 869.375 373.478 870.786 374.693C871.499 375.513 872.212 376.334 873.342 377.561C874.218 378.314 874.677 378.66 875.135 379.007C875.92 380.003 876.705 381 877.928 382.519C882.601 388.813 886.835 394.585 891.07 400.357C891.437 401.228 891.803 402.099 892.453 403.614C896.236 413.735 899.736 423.21 903.236 432.685C903.34 433.595 903.445 434.504 903.723 436.149C907.105 454.905 906.533 472.923 903.862 490.939C903.472 492.496 903.083 494.052 902.477 496.313C901.529 500.046 900.796 503.074 900.064 506.102C899.909 506.448 899.755 506.795 899.349 507.714C898.146 511.134 897.194 513.982 896.243 516.83C895.801 517.639 895.36 518.449 894.662 519.839C894.002 521.594 893.599 522.767 893.196 523.94C892.848 524.444 892.498 524.948 891.833 525.998C888.156 532.232 884.796 537.919 881.436 543.607C880.949 544.099 880.461 544.59 879.56 545.582C875.482 550.364 871.817 554.646 868.152 558.927C867.585 559.402 867.017 559.877 866.492 560.756C866.534 561.161 866.375 561.126 866.375 561.126C865.659 561.536 864.944 561.945 863.673 562.842C860.164 565.887 857.211 568.444 854.257 571.001C853.034 571.763 851.812 572.525 850.05 573.677C848.149 575.092 846.789 576.117 845.428 577.142C845.428 577.142 845.035 577.142 844.579 577.374C831.677 583.675 819.23 589.744 806.784 595.813C805.241 596.233 803.699 596.654 801.438 597.335C797.794 598.465 794.868 599.335 791.942 600.205C791.063 600.401 790.184 600.597 788.708 600.895C787.54 601.189 786.969 601.382 786.399 601.575C784.505 601.912 782.611 602.25 780.021 602.774C778.853 603.101 778.38 603.241 777.908 603.381C775.314 603.759 772.721 604.137 769.282 604.66C762.228 605.556 756.02 606.307 749.811 607.057C734.689 607.112 719.567 607.168 703.557 607.145C695.713 606.36 688.756 605.652 681.8 604.944C679.994 604.598 678.188 604.251 675.642 603.704C673.972 603.438 673.041 603.374 672.111 603.309C670.576 602.925 669.041 602.542 666.755 602.04C665.238 601.777 664.472 601.632 663.706 601.486C662.076 601.033 660.447 600.58 658.082 599.979C648.951 597.074 640.555 594.318 632.16 591.561C631.114 591.068 630.068 590.575 628.434 589.78C614.536 581.471 601.225 573.464 587.914 565.457C587.914 565.457 587.906 565.471 587.779 565.147C586.345 563.899 585.038 562.974 583.731 562.049C583.731 562.049 583.634 562.187 583.583 561.819C582.47 560.635 581.408 559.818 580.346 559.001C579.924 558.499 579.503 557.997 578.639 557.058C576.645 555.163 575.093 553.706 573.54 552.248C572.549 551.038 571.558 549.829 570.159 548.173C569.373 547.42 568.994 547.112 568.616 546.805C568.124 546.103 567.633 545.401 566.744 544.215C563.28 539.764 560.213 535.797 557.146 531.83C556.675 530.987 556.203 530.143 555.402 528.726C554.44 527.291 553.81 526.43 553.179 525.568C553.264 525.193 553.167 524.875 552.613 524.148C551.389 522.095 550.44 520.504 549.491 518.914C548.889 517.53 548.287 516.146 547.364 514.212C546.457 512.527 545.871 511.393 545.285 510.259C544.655 508.517 544.024 506.775 543.094 504.425C542.208 502.365 541.622 500.914 541.035 499.463C540.54 497.949 540.044 496.436 539.374 494.204C538.599 491.908 537.998 490.33 537.397 488.752C536.893 486.416 536.389 484.08 535.653 480.971C534.554 476.597 533.688 472.996 532.821 469.396C532.519 467.012 532.034 464.631 532 462.243C531.986 461.209 532.903 460.162 534.113 459.009C538.119 458.168 541.409 457.44 544.7 456.712C545.68 456.644 546.661 456.577 548.429 456.359C556.508 454.744 563.8 453.278 571.092 451.813C572.932 451.584 574.772 451.355 577.499 450.977C591.685 448.246 604.984 445.664 618.283 443.082C620.493 442.816 622.703 442.55 625.27 442.24C625.594 443.629 625.89 444.896 626.355 446.906C628.899 455.923 631.273 464.198 633.648 472.473C634.187 473.874 634.725 475.275 635.575 477.348C638.55 482.111 641.212 486.203 643.874 490.294C644.39 491.054 644.907 491.814 645.759 492.817C646.095 493.06 646.386 493.262 646.386 493.262C647.416 494.487 648.446 495.713 649.964 497.43C662.556 509.473 677.009 516.446 693.273 519.889C693.919 520.108 694.565 520.327 695.825 520.702C697.135 520.907 697.831 520.957 698.526 521.006C700.953 521.488 703.379 521.971 706.504 522.555C709.187 522.76 711.172 522.862 713.157 522.964C715.36 523.167 717.563 523.371 720.469 523.63C722.103 523.612 723.035 523.539 723.967 523.467C725.108 523.563 726.249 523.659 728.05 523.769C729.635 523.639 730.56 523.496 731.486 523.353C732.648 523.374 733.81 523.395 735.752 523.37C739.19 522.964 741.849 522.605 744.507 522.246C746.939 521.972 749.372 521.699 752.546 521.308C753.916 520.995 754.545 520.801 755.174 520.606C756.779 520.342 758.384 520.078 760.771 519.625C768.083 516.779 774.614 514.122 781.144 511.465C782.044 511.08 782.943 510.696 784.405 509.957C793.176 504.386 800.281 498.109 804.602 489.159C805.309 487.779 806.016 486.399 806.966 484.353C807.888 479.73 808.566 475.775 809.245 471.82C809.255 468.314 809.264 464.809 809.14 460.422C807.716 456.151 806.425 452.761 805.134 449.371C804.663 448.278 804.191 447.184 803.372 445.634C802.494 444.516 801.965 443.856 801.435 443.195C800.791 442.313 800.148 441.431 799.052 440.042C796.838 437.931 795.076 436.327 793.315 434.722C790.963 432.94 788.612 431.157 785.708 428.994C779.504 425.98 773.853 423.348 768.202 420.715C767.071 420.149 765.939 419.582 764.13 418.766C754.336 415.794 745.221 413.072 736.105 410.35C734.67 409.886 733.235 409.422 731.128 408.822C729.759 408.582 729.062 408.479 728.364 408.375C727.94 408.191 727.516 408.006 726.44 407.669C719.783 406.084 713.777 404.653 707.772 403.222C706.919 402.894 706.066 402.567 704.549 402.06C696.892 400.3 689.899 398.72 682.905 397.139C674.546 394.577 666.188 392.016 657.138 389.179C653.824 388.154 651.202 387.403 648.579 386.652C644.455 385.102 640.331 383.553 635.539 381.724C633.69 381.02 632.508 380.594 631.326 380.169C627.702 378.562 624.078 376.955 619.84 375C611.857 370.522 604.488 366.391 597.119 362.26C596.143 361.499 595.168 360.738 593.645 359.563C583.715 349.418 574.332 339.687 564.95 329.957C564.293 328.747 563.635 327.536 562.658 325.874C562.12 325.134 561.901 324.844 561.681 324.554C561.233 323.698 560.785 322.841 560.043 321.353C557.604 316.302 555.459 311.883 553.314 307.463C552.949 306.134 552.585 304.804 551.981 302.787C551.034 299.879 550.327 297.658 549.62 295.436C549.06 292.743 548.5 290.049 547.815 286.506C547.003 280.324 546.316 274.991 545.628 269.659C545.672 264.597 545.716 259.536 545.796 253.527C546.661 245.727 547.49 238.873 548.318 232.019C548.747 230.49 549.177 228.961 549.819 226.716C550.505 223.823 550.977 221.646 551.448 219.469C552.212 217.443 552.976 215.418 554.031 212.728C554.792 210.546 555.261 209.029 555.729 207.512C556.409 206.171 557.088 204.83 558.089 202.897C559.718 199.547 561.025 196.79 562.333 194.033C563.512 192.25 564.69 190.467 566.223 188.096C567.681 185.773 568.786 184.038 569.891 182.304C571.092 180.839 572.293 179.375 573.932 177.381C576.497 174.339 578.624 171.827 580.75 169.316C580.936 169.239 581.122 169.163 581.721 168.704C594.113 155.831 608.727 147.118 623.891 139.194C625.116 138.736 626.341 138.279 628.198 137.498C633.541 135.272 638.251 133.371 642.961 131.469C650.24 129.596 657.519 127.723 665.483 125.724C666.698 125.354 667.227 125.111 667.757 124.868C668.596 124.81 669.436 124.752 670.912 124.556C672.083 124.21 672.619 124.001 673.155 123.792C674.336 123.714 675.516 123.636 677.356 123.444C678.553 123.121 679.092 122.912 679.63 122.703C681.154 122.633 682.679 122.563 684.889 122.41C686.124 122.133 686.673 121.939 687.222 121.744C689.849 121.612 692.476 121.48 695.827 121.274C698.048 120.976 699.545 120.753 701.041 120.529C703.131 120.537 705.221 120.545 708.128 120.54C709.93 120.418 710.916 120.31 711.901 120.201C717.436 120.273 722.971 120.346 729.307 120.459C730.732 120.45 731.355 120.401 731.977 120.352C733.765 120.481 735.553 120.611 738.083 120.824C739.992 120.914 741.159 120.919 742.326 120.925C744.876 121.229 747.426 121.534 750.689 121.961C751.975 122.052 752.548 122.021 753.121 121.991C756.774 122.62 760.426 123.248 764.766 124.021C766.021 124.187 766.589 124.209 767.156 124.232C772.616 125.534 778.075 126.837 784.285 128.342C786.576 128.91 788.117 129.275 789.658 129.64C794.413 131.353 799.168 133.066 804.582 135.078C809.981 137.397 814.721 139.416 819.462 141.436C821.158 142.433 822.854 143.43 825.14 144.757C840.094 152.758 852.336 163.103 863.379 174.96C863.785 175.556 864.191 176.152 865.018 177.255C868.952 182.625 872.465 187.487 875.979 192.349C876.189 192.913 876.398 193.477 876.919 194.578C880.226 201.307 883.222 207.498 886.218 213.689C886.711 215.206 887.203 216.723 887.889 218.993C890.285 228.831 892.487 237.916 894.689 247.001C894.812 248.589 894.935 250.176 895.12 252.546C890.559 253.416 885.898 254.306 880.455 255.347C878.139 255.902 876.607 256.306 875.074 256.709C873.806 256.831 872.537 256.953 870.609 257.242C869.498 257.564 869.046 257.718 868.593 257.873C866.348 258.207 864.102 258.541 861.116 258.968C859.523 259.378 858.672 259.696 857.821 260.013C856.994 260.056 856.167 260.099 854.677 260.265C853.483 260.617 852.95 260.846 852.418 261.074Z" fill="black"/>
<path d="M161.476 299.911C162.766 299.353 164.055 298.795 165.926 297.911C168.791 296.208 171.074 294.831 173.357 293.454C175.338 292.505 177.319 291.556 179.924 290.308C184.028 287.961 187.508 285.914 190.988 283.867C192.613 283.126 194.237 282.386 196.487 281.333C209.813 274.047 222.513 267.073 235.213 260.1C237.166 259.184 239.118 258.269 241.664 257.039C244.642 255.352 247.029 253.979 249.415 252.605C251.306 251.735 253.198 250.864 255.654 249.668C257.399 248.604 258.578 247.865 259.758 247.126C263.156 245.387 266.555 243.647 270.585 241.623C273.594 239.963 275.971 238.587 278.348 237.212C280.63 236.104 282.912 234.997 285.822 233.549C289.149 231.635 291.847 230.06 294.545 228.485C296.1 227.733 297.655 226.981 299.841 225.909C303.891 223.629 307.309 221.669 310.728 219.709C312.712 218.76 314.696 217.811 317.329 216.518C326.007 211.739 334.035 207.305 342.063 202.87C343.902 202.058 345.742 201.245 348.183 200.083C351.481 198.209 354.176 196.684 356.871 195.16C359.264 194.051 361.656 192.943 364.675 191.478C374.1 186.393 382.898 181.664 391.696 176.935C394.582 176.014 397.469 175.093 401.175 174.041C403.521 173.849 405.045 173.789 406.57 173.729C408.74 174.39 410.91 175.05 413.696 176.058C415.752 177.6 417.191 178.794 418.267 180.131C416.72 180.874 415.535 181.474 415.67 181.406C416.684 187.147 418.195 192.023 418.279 196.923C418.471 208.055 417.775 219.2 417.785 230.339C417.796 243.102 418.267 255.864 418.352 268.628C418.378 272.532 417.527 276.441 417.55 280.345C417.584 285.96 418.268 291.572 418.284 297.186C418.316 308.591 418.005 319.996 417.993 331.401C417.985 339.199 418.311 346.996 418.368 354.795C418.439 364.305 418.385 373.816 418.385 383.71C412.946 387.472 412.946 387.472 417.663 392.171C415.321 394.026 413.255 395.714 410.973 397.026C404.688 400.639 398.312 404.094 391.972 407.612C391.494 407.767 391.016 407.922 390.012 408.367C385.454 410.912 381.422 413.164 377.39 415.417C376.819 415.645 376.249 415.872 375.07 416.348C369.469 419.366 364.475 422.134 359.482 424.903C358.999 425.035 358.515 425.168 357.527 425.61C354.447 427.431 351.873 428.943 349.299 430.455C346.497 431.894 343.696 433.333 340.28 435.063C338.921 435.89 338.176 436.426 337.431 436.961C334.604 438.372 331.777 439.783 328.307 441.517C314.644 449.019 301.623 456.197 288.602 463.376C288.602 463.376 288.08 463.45 287.534 463.689C278.563 468.602 270.139 473.276 261.714 477.951C260.759 478.362 259.803 478.772 258.257 479.52C253.969 481.912 250.272 483.966 246.576 486.02C244.608 486.988 242.641 487.957 240.049 489.285C234.299 492.565 229.173 495.485 224.048 498.406C221.334 499.704 218.62 501.003 215.31 502.634C212.431 504.333 210.146 505.7 207.862 507.067C206.199 507.868 204.536 508.669 202.256 509.801C198.231 512.094 194.824 514.055 191.417 516.017C190.57 516.397 189.723 516.778 188.255 517.467C169.135 527.888 150.637 538 132.139 548.113C130.901 548.684 129.664 549.255 127.84 550.129C124.91 551.815 122.567 553.199 120.225 554.583C118.609 555.351 116.994 556.119 114.759 557.222C111.55 559.072 108.962 560.587 106.374 562.103C104.372 563.031 102.369 563.959 99.7661 565.215C75.8631 578.043 52.5602 590.542 29.2574 603.041C28.8788 603.046 28.5002 603.05 27.4527 603.124C25.9704 603.339 25.1569 603.485 24.3435 603.631C20.0161 602.675 15.6887 601.72 10.8107 600.366C9.17788 599.163 8.09564 598.358 7.01342 597.553C6.46628 596.729 5.91914 595.904 5.0259 594.528C3.94796 592.661 3.21612 591.345 2.48428 590.029C2.48428 590.029 2.48717 589.502 2.29113 588.886C1.89207 585.415 1.51385 582.559 1.51196 579.703C1.47634 525.995 1.47619 472.287 1.49494 418.578C1.4977 410.685 1.63443 402.792 1.70917 394.898C2.01473 394.185 2.32029 393.472 2.84656 392.128C3.69662 390.131 4.32599 388.767 4.95535 387.402C5.34114 387.026 5.72693 386.649 6.50664 385.82C9.52153 383.253 12.1425 381.138 14.7635 379.024C16.0958 378.429 17.4282 377.834 19.3372 376.907C22.1561 375.252 24.3983 373.929 26.6405 372.607C28.9183 371.485 31.1961 370.364 34.1356 368.956C37.5039 367.003 40.2106 365.338 42.9173 363.672C44.8766 362.774 46.8359 361.876 49.3771 360.657C51.8511 359.218 53.7432 358.101 55.6354 356.985C58.8995 355.342 62.1637 353.699 66.0632 351.768C68.8535 350.148 71.0084 348.817 73.1633 347.486C74.3984 346.933 75.6334 346.381 77.4572 345.517C82.3452 342.791 86.6445 340.378 90.9438 337.964C90.9438 337.964 91.1687 337.976 91.6311 337.864C105.204 330.559 118.315 323.366 131.426 316.173C132.963 315.458 134.5 314.743 136.679 313.723C139.985 311.832 142.65 310.246 145.315 308.66C147.296 307.704 149.276 306.747 151.878 305.498C155.493 303.44 158.484 301.676 161.476 299.911Z" fill="black"/>
<path d="M1121.18 455.214C1118.63 455.123 1116.08 455.031 1112.67 454.922C1098.01 455.009 1084.22 455.114 1070.44 455.218C1063.59 455.127 1056.74 455.035 1049.01 454.934C1043.35 454.925 1038.57 454.925 1032.81 454.925C1034.61 462.575 1035.95 469.398 1037.89 476.047C1038.86 479.39 1040.93 482.416 1042.5 485.585C1042.78 486.782 1043.07 487.98 1043.49 489.904C1047.16 495.524 1050.68 500.417 1054.2 505.309C1054.65 505.951 1055.1 506.594 1056.02 507.751C1065.13 516.696 1074.92 523.212 1086.68 526.471C1088.51 527.102 1090.34 527.734 1092.93 528.514C1096.39 529.062 1099.09 529.461 1101.79 529.859C1111.23 529.956 1120.67 530.052 1130.92 530.017C1133.27 529.519 1134.8 529.151 1136.34 528.784C1157.09 524.698 1173.06 513.89 1182.71 494.841C1185.11 490.102 1187.53 488.655 1192.9 489.263C1212.5 491.487 1232.18 493.064 1252.7 494.994C1256.97 495.304 1260.36 495.507 1263.76 495.709C1265.6 495.96 1267.44 496.212 1270.19 496.543C1271.22 497.865 1271.67 499.199 1271.37 500.33C1270.19 504.731 1268.78 509.067 1267.45 513.428C1266.87 514.694 1266.3 515.96 1265.45 517.816C1262.16 524.347 1259.15 530.29 1256.13 536.233C1255.26 537.379 1254.39 538.525 1253.16 540.178C1252.47 541.346 1252.14 542.008 1251.8 542.671C1251.08 543.548 1250.36 544.425 1249.26 545.813C1245.73 550.168 1242.58 554.012 1239.43 557.857C1239.43 557.857 1239.04 558.072 1238.65 558.404C1228.66 566.786 1219.06 574.836 1209.46 582.886C1208.61 583.34 1207.76 583.794 1206.32 584.588C1190.97 593.974 1174.88 599.671 1158.19 603.879C1156.16 604.203 1154.13 604.527 1151.3 605.015C1145.74 605.828 1140.98 606.475 1136.22 607.123C1122.94 607.135 1109.65 607.148 1095.5 607.026C1087.66 606.029 1080.69 605.167 1073.72 604.304C1073.3 604.08 1072.88 603.856 1071.83 603.487C1070.6 603.327 1070 603.312 1069.4 603.297C1065.71 602.225 1062.02 601.153 1057.59 599.888C1048.91 596.661 1040.97 593.625 1033.04 590.59C1032.4 590.185 1031.75 589.78 1030.54 589.13C1020.44 582.764 1010.92 576.643 1001.4 570.522C1000.9 569.992 1000.41 569.461 999.425 568.488C995.476 564.931 992.019 561.818 988.561 558.704C988.492 558.509 988.422 558.314 987.942 557.653C986.372 556.052 985.213 554.916 984.054 553.781C983.659 553.227 983.263 552.673 982.436 551.635C980.218 549.022 978.432 546.893 976.645 544.763C975.863 543.533 975.082 542.302 973.906 540.555C972.109 538.046 970.708 536.055 969.307 534.063C968.452 532.479 967.598 530.894 966.353 528.734C964.451 525.483 962.94 522.807 961.429 520.132C960.885 518.848 960.342 517.565 959.523 515.665C958.231 513.033 957.213 511.016 956.196 508.998C956.1 508.458 956.005 507.918 955.647 506.794C954.583 504.375 953.781 502.54 952.98 500.706C952.517 499.042 952.055 497.379 951.316 494.999C950.184 491.743 949.331 489.204 948.477 486.664C947.846 483.676 947.215 480.687 946.454 476.887C945.609 472.766 944.893 469.457 944.178 466.147C943.886 463.545 943.595 460.943 943.23 457.451C942.754 451.38 941.889 446.186 942.036 441.021C942.452 426.357 943.282 411.704 943.948 397.047C944.346 395.24 944.743 393.434 945.247 390.822C946.012 386.605 946.671 383.192 947.33 379.78C947.934 377.861 948.537 375.942 949.323 373.276C950.2 369.907 950.894 367.285 951.589 364.663C952.031 363.487 952.474 362.311 953.192 360.5C954.065 357.908 954.662 355.95 955.26 353.991C955.866 352.744 956.473 351.497 957.324 349.614C960.412 343.02 963.255 337.06 966.098 331.101C967.07 329.602 968.042 328.103 969.4 326.045C972.794 320.993 975.804 316.499 978.813 312.006C979.292 311.519 979.77 311.031 980.597 310.094C981.392 308.955 981.837 308.266 982.283 307.577C983.377 306.428 984.472 305.278 986.009 303.613C987.584 301.708 988.715 300.319 989.847 298.929C990.721 298.18 991.596 297.43 992.972 296.2C995.331 293.868 997.189 292.018 999.048 290.168C999.639 289.769 1000.23 289.371 1001.31 288.535C1013.3 280.568 1024.8 273.037 1036.3 265.507C1040.64 263.797 1044.99 262.088 1050.07 260.172C1054.86 258.584 1058.92 257.202 1062.98 255.82C1067.46 254.968 1071.94 254.116 1077.17 253.09C1078.68 252.705 1079.44 252.493 1080.2 252.281C1080.68 252.29 1081.17 252.298 1082.44 252.225C1087.26 251.529 1091.29 250.916 1095.33 250.302C1100.03 250.164 1104.73 250.027 1110.37 249.889C1113.54 249.819 1115.77 249.749 1118 249.678C1122.34 249.948 1126.67 250.217 1131.87 250.614C1135.71 251.009 1138.67 251.276 1141.64 251.543C1146.07 252.473 1150.49 253.403 1155.73 254.45C1160.24 255.534 1163.95 256.499 1167.66 257.465C1168.84 257.912 1170.02 258.358 1171.9 259.011C1194.11 266.506 1212.8 278.419 1229.46 293.7C1230.48 294.835 1231.49 295.97 1232.97 297.607C1237.44 302.762 1241.46 307.413 1245.48 312.065C1245.97 312.908 1246.47 313.751 1247.35 315.154C1250.95 320.612 1254.16 325.511 1257.38 330.409C1257.87 331.585 1258.35 332.76 1259.15 334.54C1260.17 336.346 1260.89 337.547 1261.6 338.748C1261.79 339.336 1261.98 339.925 1262.44 341.109C1264.91 346.933 1267.11 352.162 1269.3 357.391C1269.79 359.236 1270.28 361.081 1270.98 363.677C1273.39 373.865 1275.57 383.301 1277.76 392.738C1278.04 395.342 1278.32 397.946 1278.67 401.443C1278.88 419.677 1279.02 437.02 1279.16 454.363C1278.62 454.533 1278.07 454.702 1276.75 454.884C1274.4 455.005 1272.82 455.112 1271.24 455.22C1265.83 455.129 1260.42 455.037 1254.11 454.932C1231.15 455.016 1209.09 455.115 1187.03 455.214C1185.19 455.125 1183.35 455.037 1180.66 454.932C1163.86 455.016 1147.92 455.115 1131.98 455.214C1130.48 455.119 1128.98 455.025 1126.73 454.917C1124.38 455.007 1122.78 455.11 1121.18 455.214ZM1184.5 371.176C1180.45 360.152 1174.1 350.709 1165.06 343.176C1138.83 321.317 1095.35 319.785 1066.66 339.461C1048.2 352.121 1038.62 370.014 1034.55 391.778C1086.37 391.778 1137.71 391.778 1189.88 391.778C1188.08 384.768 1186.44 378.369 1184.5 371.176Z" fill="black"/>
<path d="M1451.76 356.114C1452.24 355.67 1452.71 355.226 1453.58 354.304C1454.69 352.773 1455.42 351.721 1456.14 350.67C1456.6 350.234 1457.05 349.797 1457.89 348.863C1461.85 343.73 1465.42 339.094 1469 334.459C1469.18 334.38 1469.36 334.301 1469.91 333.779C1474.58 327.866 1478.88 322.395 1483.17 316.925C1483.78 316.294 1484.4 315.662 1485.43 314.552C1486.63 312.933 1487.4 311.793 1488.17 310.652C1488.58 310.27 1488.99 309.888 1489.8 309.059C1492.42 305.699 1494.64 302.787 1496.86 299.875C1497.17 299.649 1497.47 299.423 1498.16 298.764C1499.45 297.058 1500.35 295.785 1501.26 294.512C1501.26 294.512 1501.23 294.498 1501.56 294.347C1504.55 290.697 1507.21 287.197 1509.86 283.697C1509.86 283.697 1509.87 283.7 1510.19 283.547C1511.47 282.071 1512.43 280.748 1513.39 279.425C1513.87 278.994 1514.34 278.563 1515.2 277.664C1516.32 276.15 1517.07 275.102 1517.81 274.055C1518.28 273.619 1518.75 273.183 1519.6 272.274C1522.82 267.887 1525.65 263.974 1528.48 260.061C1532.03 259.641 1535.59 259.221 1540.1 258.807C1544.7 258.745 1548.34 258.676 1551.98 258.607C1580.44 258.679 1608.89 258.751 1637.84 259.207C1637.23 261.136 1636.11 262.681 1634.99 264.226C1634.22 265.039 1633.45 265.852 1632.27 267.161C1629.97 270.051 1628.08 272.445 1626.19 274.84C1626.19 274.84 1626.4 274.992 1626 275.033C1624.83 276.158 1624.06 277.242 1623.3 278.327C1622.28 279.411 1621.26 280.495 1619.84 282.073C1617.79 284.683 1616.15 286.8 1614.51 288.917C1614.21 289.137 1613.9 289.356 1613.23 290.003C1612.2 291.364 1611.53 292.297 1610.87 293.23C1610.06 294.046 1609.25 294.862 1608.04 296.159C1604.47 300.569 1601.31 304.499 1598.15 308.428C1597.37 309.244 1596.6 310.06 1595.43 311.357C1593.89 313.297 1592.75 314.756 1591.61 316.214C1590.64 317.232 1589.66 318.25 1588.26 319.793C1583.83 325.217 1579.82 330.117 1575.82 335.016C1574.3 336.683 1572.79 338.351 1570.81 340.546C1569.17 342.593 1567.99 344.115 1566.82 345.636C1566.2 346.24 1565.57 346.845 1564.52 347.93C1562.11 350.996 1560.12 353.582 1558.13 356.168C1557.42 356.884 1556.71 357.601 1555.54 358.831C1553.25 361.66 1551.42 363.975 1549.58 366.29C1548.72 367.175 1547.87 368.059 1546.58 369.47C1544.48 372.178 1542.81 374.36 1541.14 376.542C1540.65 376.969 1540.16 377.396 1539.27 378.289C1538.11 379.811 1537.36 380.866 1536.61 381.922C1536.44 381.998 1536.26 382.074 1535.73 382.608C1532.88 386.278 1530.39 389.491 1527.9 392.704C1527.72 392.784 1527.55 392.864 1527.03 393.384C1520.59 401.333 1514.51 408.842 1508.21 416.612C1511.92 421.155 1515.41 425.43 1518.91 429.706C1519.24 430.257 1519.58 430.808 1520.32 431.846C1526.86 440.106 1533 447.878 1539.14 455.65C1539.88 456.689 1540.62 457.728 1541.71 459.222C1542.52 460.133 1542.97 460.588 1543.42 461.044C1544.16 462.118 1544.9 463.191 1546.05 464.809C1547.96 467.155 1549.46 468.957 1550.95 470.759C1552.03 472.296 1553.12 473.834 1554.6 475.853C1555.37 476.676 1555.74 477.017 1556.11 477.358C1556.58 478.119 1557.05 478.88 1557.93 480.121C1560.02 482.675 1561.69 484.749 1563.37 486.824C1564.28 488.124 1565.18 489.424 1566.44 491.114C1567.05 491.75 1567.3 491.994 1567.56 492.238C1568.15 493.082 1568.73 493.926 1569.71 495.244C1570.66 496.387 1571.22 497.055 1571.78 497.723C1572.14 498.321 1572.49 498.919 1573.24 500.033C1576.08 503.583 1578.53 506.617 1580.98 509.651C1581.45 510.408 1581.92 511.164 1582.79 512.418C1585.85 516.343 1588.52 519.77 1591.18 523.198C1591.88 524.231 1592.59 525.265 1593.67 526.768C1594.58 527.802 1595.11 528.367 1595.64 528.931C1596.3 529.934 1596.97 530.937 1598.03 532.459C1600.29 535.268 1602.16 537.557 1604.03 539.847C1604.35 540.409 1604.67 540.97 1605.34 541.987C1606.43 543.275 1607.17 544.107 1607.91 544.939C1608.81 546.281 1609.71 547.624 1611.04 549.532C1614.4 553.875 1617.33 557.652 1620.26 561.429C1621.08 562.633 1621.91 563.836 1623.08 565.538C1623.99 566.602 1624.55 567.167 1625.1 567.733C1625.95 568.955 1626.79 570.178 1628.06 571.914C1630.33 574.8 1632.17 577.172 1634.01 579.544C1635.2 581.241 1636.39 582.938 1637.97 585.157C1640.48 588.311 1642.59 590.943 1644.71 593.574C1645.26 594.546 1645.81 595.517 1646.77 597.06C1647.13 598.141 1647.09 598.65 1647.04 599.159C1639.41 599.128 1631.78 599.097 1623.25 599.057C1620.84 599.126 1619.33 599.204 1617.81 599.281C1593.04 599.201 1568.27 599.138 1543.5 599.006C1541.62 598.996 1539.74 598.498 1537.41 597.639C1536.21 595.882 1535.45 594.714 1534.7 593.547C1534.73 593.166 1534.61 592.838 1534.04 592.157C1532.96 590.811 1532.18 589.872 1531.4 588.934C1531.06 588.392 1530.72 587.85 1529.98 586.764C1527.53 583.544 1525.48 580.868 1523.42 578.193C1523.12 577.638 1522.81 577.084 1522.13 576.023C1519.31 572.357 1516.86 569.199 1514.41 566.04C1514.16 565.556 1513.91 565.073 1513.35 564.146C1512.29 562.867 1511.54 562.032 1510.8 561.196C1510.42 560.508 1510.05 559.819 1509.37 558.702C1508.31 557.442 1507.56 556.61 1506.82 555.778C1506.24 554.848 1505.65 553.919 1504.64 552.439C1503.21 550.686 1502.2 549.484 1501.19 548.282C1501.19 548.282 1501.23 548.218 1501.12 547.867C1498.9 544.768 1496.79 542.02 1494.68 539.271C1494.18 538.42 1493.69 537.568 1492.82 536.194C1491.72 534.825 1490.99 533.978 1490.27 533.131C1490.31 532.741 1490.18 532.428 1489.56 531.768C1488.15 530.029 1487.04 528.715 1485.93 527.4C1485.88 527.21 1485.83 527.02 1485.42 526.351C1483.61 524.002 1482.16 522.131 1480.71 520.259C1480.66 520.046 1480.6 519.832 1480.17 519.143C1479.1 517.904 1478.41 517.14 1477.71 516.375C1477.71 516.375 1477.68 515.987 1477.43 515.549C1474.77 512.012 1472.37 508.914 1469.96 505.815C1469.21 504.677 1468.46 503.538 1467.29 501.847C1465.23 499.215 1463.59 497.136 1461.95 495.057C1461.29 494.031 1460.63 493.006 1459.6 491.516C1458.84 490.669 1458.44 490.286 1458.04 489.904C1456.93 488.302 1455.81 486.699 1454.3 484.565C1449.78 478.701 1445.67 473.37 1441.55 468.039C1440.85 466.997 1440.14 465.956 1439.02 464.374C1433.62 457.393 1428.64 450.953 1423.24 443.984C1422.82 445.732 1422.62 446.545 1422.1 446.928C1417.99 445.468 1416.39 447.319 1416.45 450.839C1416.55 456.866 1416.99 462.889 1417 468.914C1417.05 509.572 1417.04 550.231 1417 590.89C1416.99 593.827 1416.77 596.677 1420.27 598.124C1420.26 598.367 1420.25 598.854 1420.25 598.854C1392.88 598.925 1365.51 598.997 1337.24 599.055C1335.49 599.119 1334.64 599.196 1333.8 599.273C1333.8 599.273 1334.01 599.117 1333.84 598.775C1333.26 598.21 1332.84 597.988 1332.41 597.765C1332.31 590.582 1332.12 583.399 1332.11 576.216C1332.08 430.34 1332.06 284.463 1332.09 138.586C1332.09 135.833 1332.66 133.08 1333.54 130.751C1334.99 131.617 1335.87 132.446 1336.75 132.448C1361.6 132.508 1386.46 132.517 1411.31 132.38C1412.48 132.373 1413.64 130.956 1414.81 130.195C1415.32 130.13 1415.83 130.064 1416.73 130.53C1417.47 135.741 1418.12 140.42 1418.12 145.1C1418.19 219.157 1418.17 293.215 1418.17 367.272C1418.17 372.211 1418.05 377.155 1418.26 382.085C1418.32 383.539 1419.32 384.952 1419.89 386.384C1420.76 385.743 1421.63 385.102 1422.59 384.988C1422.69 387.495 1422.69 389.475 1422.69 391.455C1423.12 391.551 1423.56 391.647 1423.99 391.743C1427.8 386.72 1431.62 381.698 1435.43 376.676C1435.9 376.208 1436.38 375.74 1437.26 374.774C1442.37 368.222 1447.07 362.168 1451.76 356.114Z" fill="black"/>
<path d="M1660.88 345.229C1661.36 343.696 1661.85 342.162 1662.56 339.938C1664.77 333.692 1666.76 328.136 1668.74 322.58C1669.09 322.106 1669.43 321.633 1670.04 320.645C1670.49 319.613 1670.67 319.095 1670.85 318.577C1671.59 317.474 1672.33 316.372 1673.43 314.717C1675.4 311.515 1677 308.865 1678.61 306.214C1679.22 305.54 1679.82 304.865 1680.84 303.682C1682.89 301.014 1684.53 298.854 1686.17 296.694C1687.69 295.225 1689.21 293.756 1691.22 291.807C1694.37 288.782 1697.04 286.236 1699.71 283.689C1700.34 283.304 1700.97 282.919 1702.05 282.157C1702.84 281.4 1703.18 281.02 1703.52 280.64C1704.28 280.169 1705.04 279.698 1706.31 278.848C1711.17 275.613 1715.53 272.757 1719.89 269.902C1720.38 269.758 1720.88 269.614 1721.89 269.157C1727.66 266.31 1732.92 263.776 1738.17 261.242C1741.38 260.207 1744.58 259.172 1748.43 257.98C1749.62 257.577 1750.17 257.329 1750.72 257.081C1753.7 256.387 1756.67 255.693 1760.39 254.851C1762.66 254.29 1764.2 253.878 1765.73 253.465C1766.22 253.468 1766.7 253.472 1767.91 253.381C1769.82 252.952 1771.01 252.616 1772.21 252.281C1772.7 252.29 1773.18 252.298 1774.46 252.231C1780 251.53 1784.75 250.904 1789.5 250.278C1800.67 250.327 1811.85 250.377 1823.92 250.512C1834.63 251.951 1844.44 253.302 1854.25 254.654C1855.1 254.962 1855.95 255.27 1857.47 255.73C1858.62 255.935 1859.11 255.987 1859.6 256.039C1862.93 257.018 1866.26 257.997 1870.28 259.248C1876.48 261.636 1882.01 263.753 1887.53 265.869C1889.16 266.771 1890.78 267.673 1893 268.875C1910.35 277.739 1923.73 290.113 1934.48 305.462C1935.12 306.654 1935.76 307.846 1936.71 309.488C1937.25 310.243 1937.48 310.546 1937.71 310.85C1938.12 311.722 1938.53 312.595 1939.23 314.063C1940.63 316.663 1941.74 318.669 1942.84 320.675C1943.09 321.429 1943.35 322.182 1943.83 323.673C1946.12 330.632 1948.19 336.852 1950.25 343.073C1950.62 345.672 1950.99 348.271 1951.45 351.726C1951.86 355.891 1952.16 359.199 1952.09 362.435C1950.81 361.067 1949.91 359.771 1948.15 357.238C1947.66 360.457 1947.14 362.282 1947.14 364.107C1947.1 439.897 1947.09 515.687 1947.17 591.477C1947.18 593.187 1948.2 594.896 1948.75 596.605C1949.71 595.257 1950.61 593.87 1951.64 592.582C1952.05 592.073 1952.74 591.787 1953.38 591.776C1953.45 594.393 1953.43 596.635 1953.42 598.876C1946.6 598.949 1939.78 599.022 1932.12 599.085C1926.82 599.145 1922.38 599.214 1917.94 599.283C1905.66 599.22 1893.39 599.157 1880.2 599.079C1877.58 598.96 1875.88 598.854 1874.29 598.756C1873.95 596.659 1873.7 595.095 1873.44 593.531C1873.24 590.585 1873.05 587.64 1872.79 583.808C1871.65 572.783 1870.58 562.646 1869.46 551.934C1863.11 559.367 1857.36 566.098 1851.61 572.829C1851.15 573.16 1850.69 573.49 1849.83 574.204C1848.9 575.224 1848.37 575.861 1847.85 576.498C1846.96 577.2 1846.08 577.902 1844.7 579.015C1839.69 582.806 1835.16 586.187 1830.64 589.568C1829.89 589.948 1829.14 590.328 1827.84 591.013C1815.4 595.991 1803.51 600.666 1791.62 605.34C1789.37 605.634 1787.12 605.929 1784.11 606.297C1782.1 606.564 1780.86 606.757 1779.62 606.951C1768.87 607.009 1758.12 607.067 1746.52 606.978C1738.32 605.556 1730.99 604.281 1723.65 603.006C1720.02 601.722 1716.38 600.439 1712.04 598.945C1704.2 595.093 1697.08 591.452 1689.96 587.811C1688.9 586.943 1687.83 586.076 1686.29 584.86C1685.3 584.22 1684.78 583.928 1684.25 583.636C1683.7 583.072 1683.15 582.508 1682.09 581.507C1677.25 576.585 1672.91 572.099 1668.57 567.614C1668.11 566.834 1667.65 566.053 1666.92 564.899C1666.3 564.169 1665.96 563.813 1665.61 563.457C1665.06 562.429 1664.51 561.4 1663.56 559.738C1661.49 556.201 1659.82 553.297 1658.15 550.394C1657.67 549.043 1657.2 547.692 1656.41 545.656C1654.09 537.742 1652.1 530.515 1650.11 523.287C1649.75 518.247 1649.39 513.207 1649.03 507.252C1648.95 503.467 1648.88 500.598 1648.81 497.728C1649.25 494.039 1649.69 490.35 1650.25 485.84C1651.22 480.923 1652.06 476.825 1652.91 472.728C1653.11 472.306 1653.31 471.884 1653.69 470.841C1654.74 467.78 1655.61 465.34 1656.48 462.9C1656.93 462.067 1657.38 461.233 1658.1 459.798C1663.95 447.481 1672.01 437.705 1681.82 429.294C1682.86 428.565 1683.9 427.836 1685.48 426.686C1688.51 424.516 1690.99 422.766 1693.46 421.017C1697.26 419.116 1701.05 417.214 1705.44 415.065C1706.95 414.303 1707.88 413.79 1708.8 413.276C1712.44 411.967 1716.08 410.658 1720.4 409.228C1722.38 408.623 1723.68 408.138 1724.98 407.654C1725.44 407.604 1725.9 407.553 1727.01 407.319C1729.28 406.618 1730.91 406.101 1732.53 405.583C1734.45 405.126 1736.37 404.668 1738.46 403.713C1738.63 403.216 1738.63 403.165 1738.63 403.165C1741.85 402.977 1745.08 402.789 1749.01 402.501C1750.36 402.195 1750.99 401.989 1751.63 401.783C1752.65 401.682 1753.68 401.582 1755.39 401.384C1758.24 400.923 1760.4 400.56 1762.56 400.196C1765.47 399.955 1768.37 399.714 1772.17 399.408C1775.32 399.024 1777.58 398.705 1779.83 398.385C1782.47 398.252 1785.11 398.119 1788.55 397.939C1795.15 397.339 1800.93 396.787 1806.72 396.235C1809.44 396.143 1812.15 396.051 1815.75 395.917C1819.45 395.584 1822.27 395.294 1825.1 395.005C1829.49 394.773 1833.89 394.542 1839.21 394.247C1848.16 393.493 1856.17 392.802 1864.62 392.073C1864.44 381.094 1865.92 370.514 1861.85 360.34C1861.21 358.393 1860.56 356.446 1859.62 353.832C1857.13 350.082 1854.94 346.998 1852.75 343.914C1852.32 343.375 1851.89 342.836 1851 341.831C1846.72 338.764 1842.89 336.163 1839.07 333.562C1838.56 333.212 1838.06 332.862 1836.96 332.246C1834.42 331.362 1832.46 330.746 1830.5 330.129C1826.11 329 1821.72 327.871 1816.52 326.579C1808.04 326.568 1800.38 326.722 1792.72 326.875C1787.48 327.979 1782.24 329.084 1776.25 330.39C1760.86 336.101 1749.34 344.963 1743.75 360.198C1743.27 361.157 1742.79 362.117 1742.09 363.749C1741.42 366.351 1740.96 368.28 1740.51 370.209C1735.95 370.006 1731.39 369.803 1726.08 369.399C1724.4 369.156 1723.47 369.113 1722.54 369.071C1718.18 368.256 1713.81 367.442 1708.67 366.405C1703.16 365.433 1698.43 364.685 1693.7 363.937C1691.63 363.52 1689.56 363.103 1686.71 362.559C1684.51 362.255 1683.09 362.079 1681.67 361.904C1680.48 361.69 1679.29 361.476 1677.35 361.109C1671.49 360.16 1666.39 359.363 1661.29 358.567C1660.35 357.89 1659.41 357.214 1658.64 355.917C1659.5 351.941 1660.19 348.585 1660.88 345.229ZM1754.44 527.717C1781.6 541.743 1808.24 539.281 1833.07 522.95C1858.2 506.426 1865.58 481.062 1864.27 451.765C1841.58 454.035 1819.41 455.921 1797.33 458.597C1785.96 459.975 1774.55 462.027 1763.53 465.112C1752.44 468.22 1743.57 474.888 1739.72 486.597C1734.69 501.88 1739.84 516.842 1754.44 527.717Z" fill="black"/>
<path d="M219.781 90.251C220.866 90.7347 221.952 91.2184 223.647 91.9963C231.386 95.0099 238.516 97.7292 245.646 100.449C246.038 100.72 246.431 100.991 247.433 101.495C255.16 104.5 262.277 107.272 269.394 110.045C270.499 110.599 271.603 111.153 273.341 111.963C277.856 113.622 281.737 115.025 285.618 116.428C301.534 122.905 317.45 129.382 334.016 136.164C344.531 140.348 354.396 144.227 364.261 148.105C364.449 148.495 364.637 148.885 364.427 149.598C363.358 150.387 362.687 150.853 362.017 151.32C359.771 152.501 357.526 153.681 354.671 155.177C351.667 156.936 349.273 158.379 346.878 159.821C346.698 159.839 346.518 159.857 345.799 160.169C340.976 162.926 336.69 165.389 332.405 167.853C332.405 167.853 332.165 167.87 331.71 168.004C323.13 172.781 315.005 177.424 306.88 182.067C305.61 182.615 304.34 183.164 302.483 184.022C298.966 186.068 296.036 187.805 293.106 189.541C290.731 190.726 288.356 191.91 285.372 193.468C279.634 196.751 274.504 199.661 269.374 202.571C266.687 203.915 264 205.259 260.695 206.924C255.183 210.105 250.289 212.965 245.396 215.825C243.84 216.594 242.284 217.364 240.1 218.465C235.181 221.246 230.89 223.695 226.6 226.143C225.47 226.646 224.341 227.149 222.62 227.968C206.821 236.798 191.614 245.314 176.406 253.83C174.139 255.04 171.872 256.25 168.994 257.733C167.508 258.621 166.635 259.236 165.761 259.852C162.941 261.289 160.122 262.726 156.661 264.465C153.89 266.077 151.759 267.388 149.628 268.699C145.134 271.028 140.64 273.357 135.469 275.898C133.036 276.209 131.279 276.31 129.522 276.41C110.976 268.392 92.4295 260.375 73.2482 252.04C56.3746 244.934 40.1363 238.143 23.8979 231.353C23.8979 231.353 23.7726 231.326 23.4757 231.027C19.6103 229.34 16.0419 227.952 12.4734 226.564C12.0852 226.31 11.6969 226.056 10.7149 225.515C8.04548 224.471 5.96982 223.713 3.89416 222.955C3.43461 222.666 2.97506 222.377 2.09203 221.589C1.61514 219.301 1.51513 217.51 1.51508 215.719C1.51338 151.593 1.52034 87.468 1.52847 23.3426C1.52925 17.2354 1.41682 11.1232 1.65988 5.0254C1.71006 3.76633 3.1106 2.56109 3.88875 1.33105C5.05148 1.89257 6.2142 2.4541 7.99301 3.33891C15.2717 6.47404 21.9343 9.28588 28.5969 12.0977C29.8341 12.687 31.0714 13.2762 32.884 14.1803C35.9351 15.5477 38.3951 16.6391 40.8889 17.6467C61.9975 26.1752 83.1123 34.6885 104.225 43.2063C104.614 43.4748 105.002 43.7433 105.976 44.2711C108.307 45.1251 110.054 45.72 111.8 46.3149C112.514 46.7052 113.229 47.0956 114.519 47.7593C118.316 49.2435 121.538 50.4545 124.759 51.6654C142.428 58.9858 160.097 66.3063 178.4 73.9251C179.614 74.3444 180.192 74.4652 180.771 74.5861C182.334 75.2803 183.897 75.9745 186.078 76.9934C197.724 81.6291 208.753 85.94 219.781 90.251Z" fill="black"/>
<path d="M374.121 457.765C375.566 458.364 377.011 458.963 379.081 459.814C381.825 460.976 383.943 461.887 386.062 462.797C387.248 463.544 388.435 464.29 390.097 465.354C391.108 465.878 391.643 466.084 392.178 466.291C394.144 467.767 396.11 469.244 398.581 471.166C401.282 473.484 403.477 475.357 405.672 477.23C406.374 478.151 407.076 479.072 408.148 480.438C409.062 481.428 409.606 481.973 410.149 482.519C410.505 483.085 410.86 483.651 411.607 484.731C414.225 488.572 416.451 491.9 418.677 495.228C418.874 495.804 419.07 496.38 419.531 497.555C421.913 504.491 424.03 510.828 426.148 517.164C426.094 526.49 426.041 535.815 425.828 545.956C425.016 549.753 424.362 552.735 423.708 555.716C423.118 557.169 422.528 558.622 421.703 560.728C419.681 565.245 417.896 569.109 416.11 572.972C415.547 573.732 414.985 574.492 414.088 575.799C412.033 578.755 410.312 581.165 408.591 583.574C407.726 584.413 406.861 585.252 405.544 586.551C403.316 588.804 401.54 590.597 399.764 592.391C397.874 593.726 395.984 595.06 393.483 596.75C389.509 599.155 386.147 601.205 382.785 603.255C378.369 604.735 373.954 606.215 368.866 607.835C367.662 608.212 367.131 608.448 366.6 608.684C363.303 609.06 360.006 609.436 355.766 609.846C350.465 609.898 346.108 609.916 341.751 609.934C340.943 609.826 340.135 609.718 338.589 609.483C335.548 608.92 333.245 608.483 330.942 608.046C330.476 607.882 330.01 607.718 328.897 607.365C327.354 606.988 326.458 606.8 325.561 606.612C321.996 605.1 318.431 603.589 314.28 601.728C310.791 599.738 307.888 598.096 304.986 596.454C302.156 594.121 299.327 591.787 296.095 589.7C295.692 589.947 295.663 589.809 295.663 589.809C295.027 588.705 294.391 587.601 293.328 586.004C291.397 583.791 289.893 582.07 288.389 580.35C288.081 579.784 287.773 579.217 287.109 578.141C285.672 576.06 284.591 574.488 283.509 572.916C283.302 572.348 283.094 571.781 282.602 570.688C281.591 568.968 280.863 567.773 280.136 566.577C279.972 565.978 279.808 565.379 279.392 564.208C278.341 561.641 277.542 559.644 276.743 557.648C275.725 552.573 274.707 547.499 273.641 541.58C272.473 528.15 274.186 515.902 277.978 503.901C278.706 502.359 279.434 500.817 280.467 498.696C281.295 496.813 281.817 495.508 282.339 494.203C284.093 491.55 285.847 488.896 287.995 485.714C290.449 482.529 292.509 479.875 294.57 477.221C294.57 477.221 294.293 476.969 294.733 476.981C296.049 476.001 296.925 475.008 297.802 474.014C297.802 474.014 297.517 473.737 297.995 473.759C309.436 463.98 322.482 458.466 336.641 455.242C340.019 454.939 343.398 454.637 347.58 454.313C349.64 454.203 350.895 454.115 352.15 454.027C352.696 454.116 353.243 454.206 354.549 454.357C359.3 454.944 363.292 455.47 367.284 455.995C367.775 456.177 368.266 456.358 369.423 456.715C371.434 457.182 372.778 457.473 374.121 457.765Z" fill="black"/>
<path d="M417.841 391.832C412.946 387.472 412.946 387.472 418.385 383.71C418.385 373.816 418.439 364.305 418.368 354.795C418.311 346.997 417.985 339.199 417.993 331.401C418.005 319.996 418.316 308.591 418.284 297.186C418.268 291.572 417.584 285.96 417.55 280.345C417.527 276.441 418.378 272.532 418.352 268.628C418.267 255.864 417.796 243.102 417.785 230.34C417.775 219.2 418.471 208.055 418.279 196.923C418.195 192.023 416.684 187.148 415.67 181.406C415.535 181.474 416.72 180.874 418.573 180.226C420.238 181.266 421.235 182.354 422.232 183.442C422.451 184.208 422.669 184.973 423.045 186.569C423.863 191.491 425.09 195.582 425.098 199.674C425.206 256.938 425.166 314.203 425.086 371.467C425.081 375.199 424.449 378.93 424.109 382.661C423.437 383.897 422.766 385.133 421.783 386.917C420.261 388.92 419.051 390.376 417.841 391.832Z" fill="black"/>
<path d="M1422.93 132.13C1422.98 152.114 1422.82 171.869 1422.82 191.624C1422.8 249.304 1422.84 306.984 1422.87 365.453C1422.96 367.562 1423.04 368.881 1423.12 370.2C1423.01 374.86 1422.89 379.521 1422.63 384.32C1421.63 385.102 1420.76 385.743 1419.89 386.384C1419.32 384.952 1418.32 383.539 1418.26 382.085C1418.05 377.155 1418.17 372.211 1418.17 367.272C1418.17 293.215 1418.19 219.157 1418.12 145.1C1418.12 140.42 1417.47 135.741 1417.1 130.631C1418.21 130.11 1419.34 130.019 1421 130.359C1421.84 131.015 1422.17 131.239 1422.49 131.464C1422.49 131.464 1422.8 131.901 1422.93 132.13Z" fill="black"/>
<path d="M1422.1 446.927C1422.52 467.093 1422.68 486.829 1422.71 506.566C1422.76 536.369 1422.72 566.173 1422.84 596.387C1422.89 596.979 1422.8 597.159 1422.23 597.613C1421.25 597.883 1420.76 597.882 1420.27 597.88C1416.77 596.677 1416.99 593.827 1417 590.889C1417.04 550.231 1417.05 509.572 1417 468.913C1416.99 462.888 1416.55 456.865 1416.45 450.839C1416.39 447.318 1417.99 445.467 1422.1 446.927Z" fill="black"/>
<path d="M1414.44 130.036C1413.64 130.956 1412.48 132.373 1411.31 132.38C1386.46 132.517 1361.6 132.508 1336.75 132.448C1335.87 132.446 1334.99 131.617 1334.02 130.744C1337.89 130.146 1341.87 129.977 1346.81 129.824C1352.51 129.723 1357.26 129.607 1362.01 129.49C1373.89 129.596 1385.77 129.701 1398.62 129.827C1403.61 129.732 1407.64 129.617 1411.67 129.502C1412.47 129.627 1413.26 129.752 1414.44 130.036Z" fill="black"/>
<path d="M1420.27 598.123C1420.76 597.882 1421.25 597.883 1422.1 597.882C1421.98 598.284 1421.48 598.689 1420.62 598.973C1420.25 598.853 1420.26 598.367 1420.27 598.123Z" fill="black"/>
<path d="M1332.29 598.077C1332.84 597.988 1333.26 598.21 1333.8 598.65C1333.34 598.708 1332.75 598.549 1332.29 598.077Z" fill="black"/>
<path d="M1422.49 131.098C1422.17 131.239 1421.84 131.015 1421.4 130.513C1421.68 130.401 1422.09 130.567 1422.49 131.098Z" fill="black"/>
<path d="M1952.09 362.435C1952.62 362.981 1952.77 363.454 1952.41 364.346C1951.47 365.369 1951.03 365.974 1950.6 366.578C1951.42 366.972 1952.24 367.367 1953.06 367.761C1953.2 370.081 1953.48 372.401 1953.48 374.721C1953.51 443.375 1953.52 512.03 1953.01 581.202C1949.16 584.58 1949.41 586.554 1953.3 588.128C1953.37 588.951 1953.44 589.773 1953.4 590.998C1952.74 591.787 1952.05 592.073 1951.64 592.582C1950.61 593.87 1949.71 595.257 1948.75 596.605C1948.2 594.896 1947.18 593.187 1947.17 591.477C1947.09 515.687 1947.1 439.897 1947.14 364.107C1947.14 362.282 1947.66 360.457 1948.15 357.238C1949.91 359.771 1950.81 361.067 1952.09 362.435Z" fill="black"/>
<path d="M1953.4 587.674C1949.41 586.554 1949.16 584.58 1952.9 581.699C1953.37 583.526 1953.43 585.373 1953.4 587.674Z" fill="black"/>
<path d="M1953.13 367.365C1952.24 367.367 1951.42 366.972 1950.6 366.578C1951.03 365.974 1951.47 365.37 1952.3 364.707C1952.86 365.423 1953.04 366.196 1953.13 367.365Z" fill="black"/>
</g>
<defs>
<clipPath id="clip0_106_446">
<rect width="1966" height="610" fill="white"/>
</clipPath>
</defs>
</svg>
